                                                                        S      1
,,13Hbase_side v20,13Hbase_side v20,7Hunknown,7Hunknown,32,38,7,99,15,, G      1
1.,2,2HMM,1,0.08,15H20200329.203022,0.01,10000.,7Hunknown,7Hunknown,11, G      2
0,15H20191127.061229;                                                   G      3
     186       1                                                00000000D      1
     186            -215       1       0                               0D      2
     514       2                                                00010000D      3
     514                       2       1                               0D      4
     510       4                                                00010000D      5
     510            -215       1       1                               0D      6
     510       5                                                00010000D      7
     510            -215       1       1                               0D      8
     510       6                                                00010000D      9
     510            -215       1       1                               0D     10
     510       7                                                00010000D     11
     510            -215       1       1                               0D     12
     510       8                                                00010000D     13
     510            -215       1       1                               0D     14
     510       9                                                00010000D     15
     510            -215       1       1                               0D     16
     510      10                                                00010000D     17
     510            -215       1       1                               0D     18
     510      11                                                00010000D     19
     510            -215       1       1                               0D     20
     510      12                                                00010000D     21
     510            -215       1       1                               0D     22
     510      13                                                00010000D     23
     510            -215       1       1                               0D     24
     510      14                                                00010000D     25
     510            -215       1       1                               0D     26
     510      15                                                00010000D     27
     510            -215       1       1                               0D     28
     510      16                                                00010000D     29
     510            -215       1       1                               0D     30
     510      17                                                00010000D     31
     510            -215       1       1                               0D     32
     510      18                                                00010000D     33
     510            -215       1       1                               0D     34
     510      19                                                00010000D     35
     510            -215       1       1                               0D     36
     510      20                                                00010000D     37
     510            -215       1       1                               0D     38
     510      21                                                00010000D     39
     510            -215       1       1                               0D     40
     508      22                                                00010000D     41
     508                       1       1                               0D     42
     508      23                                                00010000D     43
     508                       1       1                               0D     44
     508      24                                                00010000D     45
     508                       1       1                               0D     46
     508      25                                                00010000D     47
     508                       1       1                               0D     48
     508      26                                                00010000D     49
     508                       2       1                               0D     50
     508      28                                                00010000D     51
     508                       1       1                               0D     52
     508      29                                                00010000D     53
     508                       1       1                               0D     54
     508      30                                                00010000D     55
     508                       3       1                               0D     56
     508      33                                                00010000D     57
     508                       1       1                               0D     58
     508      34                                                00010000D     59
     508                       2       1                               0D     60
     508      36                                                00010000D     61
     508                       2       1                               0D     62
     508      38                                                00010000D     63
     508                       1       1                               0D     64
     508      39                                                00010000D     65
     508                       1       1                               0D     66
     508      40                                                00010000D     67
     508                       2       1                               0D     68
     508      42                                                00010000D     69
     508                       1       1                               0D     70
     508      43                                                00010000D     71
     508                       1       1                               0D     72
     508      44                                                00010000D     73
     508                       2       1                               0D     74
     508      46                                                00010000D     75
     508                       1       1                               0D     76
     126      47                                                00010000D     77
     126       0               3       0                               0D     78
     126      50                                                00010000D     79
     126       0               6       0                               0D     80
     126      56                                                00010000D     81
     126       0               2       0                               0D     82
     126      58                                                00010000D     83
     126       0               6       0                               0D     84
     126      64                                                00010000D     85
     126       0               3       0                               0D     86
     126      67                                                00010000D     87
     126       0               4       0                               0D     88
     126      71                                                00010000D     89
     126       0               2       0                               0D     90
     126      73                                                00010000D     91
     126       0               4       0                               0D     92
     126      77                                                00010000D     93
     126       0               3       0                               0D     94
     126      80                                                00010000D     95
     126       0               2       0                               0D     96
     126      82                                                00010000D     97
     126       0               2       0                               0D     98
     126      84                                                00010000D     99
     126       0               3       0                               0D    100
     126      87                                                00010000D    101
     126       0               2       0                               0D    102
     126      89                                                00010000D    103
     126       0               2       0                               0D    104
     126      91                                                00010000D    105
     126       0               2       0                               0D    106
     126      93                                                00010000D    107
     126       0               4       0                               0D    108
     126      97                                                00010000D    109
     126       0               4       0                               0D    110
     126     101                                                00010000D    111
     126       0               3       0                               0D    112
     126     104                                                00010000D    113
     126       0               4       0                               0D    114
     126     108                                                00010000D    115
     126       0               3       0                               0D    116
     126     111                                                00010000D    117
     126       0               4       0                               0D    118
     126     115                                                00010000D    119
     126       0               2       0                               0D    120
     126     117                                                00010000D    121
     126       0               6       0                               0D    122
     126     123                                                00010000D    123
     126       0               3       0                               0D    124
     126     126                                                00010000D    125
     126       0               6       0                               0D    126
     126     132                                                00010000D    127
     126       0               2       0                               0D    128
     126     134                                                00010000D    129
     126       0               3       0                               0D    130
     126     137                                                00010000D    131
     126       0               8       0                               0D    132
     126     145                                                00010000D    133
     126       0               4       0                               0D    134
     126     149                                                00010000D    135
     126       0               2       0                               0D    136
     126     151                                                00010000D    137
     126       0               2       0                               0D    138
     126     153                                                00010000D    139
     126       0               5       0                               0D    140
     126     158                                                00010000D    141
     126       0               3       0                               0D    142
     126     161                                                00010000D    143
     126       0               3       0                               0D    144
     126     164                                                00010000D    145
     126       0               2       0                               0D    146
     126     166                                                00010000D    147
     126       0               4       0                               0D    148
     126     170                                                00010000D    149
     126       0               5       0                               0D    150
     126     175                                                00010000D    151
     126       0               3       0                               0D    152
     126     178                                                00010000D    153
     126       0               2       0                               0D    154
     126     180                                                00010000D    155
     126       0               2       0                               0D    156
     126     182                                                00010000D    157
     126       0               2       0                               0D    158
     126     184                                                00010000D    159
     126       0               3       0                               0D    160
     126     187                                                00010000D    161
     126       0               3       0                               0D    162
     126     190                                                00010000D    163
     126       0               5       0                               0D    164
     126     195                                                00010000D    165
     126       0               2       0                               0D    166
     126     197                                                00010000D    167
     126       0               2       0                               0D    168
     126     199                                                00010000D    169
     126       0               5       0                               0D    170
     126     204                                                00010000D    171
     126       0               2       0                               0D    172
     128     206                                                00010000D    173
     128       0    -215       9       0                               0D    174
     128     215                                                00010000D    175
     128       0    -215       6       0                               0D    176
     128     221                                                00010000D    177
     128       0    -215       4       0                               0D    178
     128     225                                                00010000D    179
     128       0    -215       4       0                               0D    180
     128     229                                                00010000D    181
     128       0    -215       6       0                               0D    182
     128     235                                                00010000D    183
     128       0    -215       6       0                               0D    184
     128     241                                                00010000D    185
     128       0    -215       9       0                               0D    186
     128     250                                                00010000D    187
     128       0    -215       5       0                               0D    188
     128     255                                                00010000D    189
     128       0    -215       5       0                               0D    190
     128     260                                                00010000D    191
     128       0    -215       6       0                               0D    192
     128     266                                                00010000D    193
     128       0    -215       4       0                               0D    194
     128     270                                                00010000D    195
     128       0    -215       6       0                               0D    196
     128     276                                                00010000D    197
     128       0    -215       4       0                               0D    198
     128     280                                                00010000D    199
     128       0    -215       9       0                               0D    200
     128     289                                                00010000D    201
     128       0    -215       6       0                               0D    202
     128     295                                                00010000D    203
     128       0    -215       7       0                               0D    204
     128     302                                                00010000D    205
     128       0    -215       4       0                               0D    206
     128     306                                                00010000D    207
     128       0    -215       5       0                               0D    208
     502     311                                                00010000D    209
     502                      18       1                               0D    210
     504     329                                                00010001D    211
     504                      14       1                               0D    212
     406     343                                                00000000D    213
     406                       1      15                               0D    214
     314     344                                                00000200D    215
     314                       2       0                               0D    216
186,3,1,0,0,1,213;                                                     1P      1
514,18,5,1,7,1,9,1,11,1,13,1,15,1,17,1,19,1,21,1,23,1,25,1,27,1,       3P      2
29,1,31,1,33,1,35,1,37,1,39,1;                                         3P      3
510,173,1,1,41;                                                        5P      4
510,175,1,1,43;                                                        7P      5
510,177,1,1,45;                                                        9P      6
510,179,1,1,47;                                                       11P      7
510,181,1,1,49;                                                       13P      8
510,183,1,1,51;                                                       15P      9
510,185,1,1,53;                                                       17P     10
510,187,1,1,55;                                                       19P     11
510,189,1,1,57;                                                       21P     12
510,191,1,1,59;                                                       23P     13
510,193,1,1,61;                                                       25P     14
510,195,1,1,63;                                                       27P     15
510,197,1,1,65;                                                       29P     16
510,199,1,1,67;                                                       31P     17
510,201,1,1,69;                                                       33P     18
510,203,1,1,71;                                                       35P     19
510,205,1,1,73;                                                       37P     20
510,207,1,1,75;                                                       39P     21
508,4,0,211,1,0,0,0,211,2,1,0,0,211,3,0,0,0,211,4,1,0;                41P     22
508,4,0,211,5,0,0,0,211,6,1,0,0,211,7,0,0,0,211,8,0,0;                43P     23
508,4,0,211,9,1,0,0,211,10,0,0,0,211,11,0,0,0,211,7,1,0;              45P     24
508,4,0,211,12,1,0,0,211,13,0,0,0,211,14,1,0,0,211,15,1,0;            47P     25
508,7,0,211,12,0,0,0,211,16,0,0,0,211,17,1,0,0,211,18,0,0,0,211,      49P     26
2,0,0,0,211,19,0,0,0,211,20,0,0;                                      49P     27
508,4,0,211,1,1,0,0,211,21,1,0,0,211,22,1,0,0,211,19,1,0;             51P     28
508,4,0,211,5,1,0,0,211,23,1,0,0,211,24,1,0,0,211,25,1,0;             53P     29
508,14,0,211,26,1,0,0,211,27,1,0,0,211,28,0,0,0,211,29,0,0,0,         55P     30
211,14,0,0,0,211,30,0,0,0,211,21,0,0,0,211,4,0,0,0,211,31,1,0,0,      55P     31
211,32,1,0,0,211,33,1,0,0,211,23,0,0,0,211,8,1,0,0,211,11,1,0;        55P     32
508,4,0,211,34,1,0,0,211,35,0,0,0,211,26,0,0,0,211,10,1,0;            57P     33
508,7,0,211,25,0,0,0,211,36,1,0,0,211,37,1,0,0,211,38,0,0,0,211,      59P     34
34,0,0,0,211,9,0,0,0,211,6,0,0;                                       59P     35
508,6,0,211,24,0,0,0,211,33,0,0,0,211,39,1,0,0,211,40,1,0,0,211,      61P     36
41,1,0,0,211,36,0,0;                                                  61P     37
508,4,0,211,16,1,0,0,211,15,0,0,0,211,29,1,0,0,211,42,1,0;            63P     38
508,4,0,211,20,1,0,0,211,22,0,0,0,211,30,1,0,0,211,13,1,0;            65P     39
508,8,0,211,28,1,0,0,211,43,1,0,0,211,37,0,0,0,211,41,0,0,0,211,      67P     40
44,0,0,0,211,45,0,0,0,211,17,0,0,0,211,42,0,0;                        67P     41
508,4,0,211,38,1,0,0,211,43,0,0,0,211,27,0,0,0,211,35,1,0;            69P     42
508,4,0,211,32,0,0,0,211,46,1,0,0,211,47,1,0,0,211,39,0,0;            71P     43
508,6,0,211,3,1,0,0,211,18,1,0,0,211,45,1,0,0,211,48,1,0,0,211,       73P     44
46,0,0,0,211,31,0,0;                                                  73P     45
508,4,0,211,44,1,0,0,211,40,0,0,0,211,47,0,0,0,211,48,0,0;            75P     46
126,1,1,0,0,1,0,-3.45,-3.45,3.45,3.45,1.,1.,-0.182568851450479,       77P     47
30.7607353412922,69.,-0.182568851450479,30.7607353412922,0.,          77P     48
-3.45,3.45,0.,0.,0.;                                                  77P     49
126,2,2,0,0,0,0,-0.218166156499352,-0.218166156499352,                79P     50
-0.218166156499352,1.26536370769588,1.26536370769588,                 79P     51
1.26536370769588,1.,0.737277336810063,1.,-0.182568851450479,          79P     52
30.7607353412922,69.,-1.30829972081457D-16,30.776708046107,69.,       79P     53
-1.38777878078145D-16,30.9599742809105,69.,-0.218166156499352,        79P     54
1.26536370769588,0.,0.,0.;                                            79P     55
126,1,1,0,0,1,0,-3.45,-3.45,3.45,3.45,1.,1.,0.,30.9599742809105,      81P     56
0.,0.,30.9599742809105,69.,-3.45,3.45,0.,0.,0.;                       81P     57
126,2,2,0,0,0,0,-1.26536370769588,-1.26536370769588,                  83P     58
-1.26536370769588,0.218166156499364,0.218166156499364,                83P     59
0.218166156499364,1.,0.737277336810135,1.,-1.38777878078145D-16,      83P     60
30.9599742809105,0.,-1.48177206841225D-16,30.776708046107,0.,         83P     61
-0.182568851450481,30.7607353412922,0.,-1.26536370769588,             83P     62
0.218166156499364,0.,0.,0.;                                           83P     63
126,1,1,0,0,1,0,-3.45,-3.45,3.45,3.45,1.,1.,-0.182568851450479,       85P     64
-30.7607353412922,69.,-0.182568851450479,-30.7607353412922,0.,        85P     65
-3.45,3.45,0.,0.,0.;                                                  85P     66
126,1,1,0,0,1,0,-0.2619100664132,-0.2619100664132,                    87P     67
0.194569861187229,0.194569861187229,1.,1.,-0.182568851450479,         87P     68
-30.7607353412922,69.,-2.80083015283888,-34.5,69.,                    87P     69
-0.2619100664132,0.194569861187229,0.,0.,0.;                          87P     70
126,1,1,0,0,1,0,0.,0.,6.9,6.9,1.,1.,-2.80083015283888,-34.5,0.,       89P     71
-2.80083015283888,-34.5,69.,0.,6.9,0.,0.,0.;                          89P     72
126,1,1,0,0,1,0,0.0318299079041547,0.0318299079041547,                91P     73
0.488309835504584,0.488309835504584,1.,1.,-0.18256885145048,          91P     74
-30.7607353412922,0.,-2.80083015283888,-34.5,0.,                      91P     75
0.0318299079041547,0.488309835504584,0.,0.,0.;                        91P     76
126,1,1,0,0,1,0,-0.449999999999999,-0.449999999999999,0.15,0.15,      93P     77
1.,1.,-2.80083015283888,-34.5,69.,-2.80083015283888,-28.5,69.,        93P     78
-0.449999999999999,0.15,0.,0.,0.;                                     93P     79
126,1,1,0,0,1,0,0.,0.,6.9,6.9,1.,1.,-2.80083015283888,-28.5,0.,       95P     80
-2.80083015283888,-28.5,69.,0.,6.9,0.,0.,0.;                          95P     81
126,1,1,0,0,1,0,0.,0.,0.6,0.6,1.,1.,-2.80083015283888,-34.5,0.,       97P     82
-2.80083015283888,-28.5,0.,0.,0.6,0.,0.,0.;                           97P     83
126,1,1,0,0,1,0,-0.125,-0.125,0.375,0.375,1.,1.,                      99P     84
2.19916984716112,28.5,69.,-2.80083015283888,28.5,69.,-0.125,          99P     85
0.375,0.,0.,0.;                                                       99P     86
126,1,1,0,0,1,0,0.,0.,6.9,6.9,1.,1.,-2.80083015283888,28.5,0.,       101P     87
-2.80083015283888,28.5,69.,0.,6.9,0.,0.,0.;                          101P     88
126,1,1,0,0,1,0,0.,0.,0.5,0.5,1.,1.,-2.80083015283888,28.5,0.,       103P     89
2.19916984716112,28.5,0.,0.,0.5,0.,0.,0.;                            103P     90
126,1,1,0,0,1,0,0.,0.,6.9,6.9,1.,1.,2.19916984716112,28.5,0.,        105P     91
2.19916984716112,28.5,69.,0.,6.9,0.,0.,0.;                           105P     92
126,1,1,0,0,1,0,-0.146491832672565,-0.146491832672565,               107P     93
0.446491832672565,0.446491832672565,1.,1.,2.19916984716113,          107P     94
34.4298366534513,69.,2.19916984716112,28.5,69.,                      107P     95
-0.146491832672565,0.446491832672565,0.,0.,0.;                       107P     96
126,2,2,0,0,0,0,-0.0637873012473303,-0.0637873012473303,             109P     97
-0.0637873012473303,0.,0.,0.,1.,0.99949144063618,1.,                 109P     98
2.19916984716113,34.4298366534513,69.,1.10070418574329,34.5,69.,     109P     99
-3.88578058618805D-15,34.5,69.,-0.0637873012473303,0.,0.,0.,0.;      109P    100
126,1,1,0,0,1,0,-0.00400257190894671,-0.00400257190894671,           111P    101
0.350000000000001,0.350000000000001,1.,1.,0.,30.9599742809105,       111P    102
69.,0.,34.5,69.,-0.00400257190894671,0.350000000000001,0.,0.,0.;     111P    103
126,1,1,0,0,1,0,-0.194569861187229,-0.194569861187229,               113P    104
0.2619100664132,0.2619100664132,1.,1.,-2.80083015283888,34.5,        113P    105
69.,-0.182568851450479,30.7607353412922,69.,-0.194569861187229,      113P    106
0.2619100664132,0.,0.,0.;                                            113P    107
126,1,1,0,0,1,0,-0.15,-0.15,0.449999999999999,0.449999999999999,     115P    108
1.,1.,-2.80083015283888,28.5,69.,-2.80083015283888,34.5,69.,         115P    109
-0.15,0.449999999999999,0.,0.,0.;                                    115P    110
126,1,1,0,0,1,0,0.0318299079041547,0.0318299079041547,               117P    111
0.488309835504584,0.488309835504584,1.,1.,-0.18256885145048,         117P    112
30.7607353412922,0.,-2.80083015283888,34.5,0.,                       117P    113
0.0318299079041547,0.488309835504584,0.,0.,0.;                       117P    114
126,1,1,0,0,1,0,0.,0.,6.9,6.9,1.,1.,-2.80083015283888,34.5,0.,       119P    115
-2.80083015283888,34.5,69.,0.,6.9,0.,0.,0.;                          119P    116
126,2,2,0,0,0,0,-0.218166156499363,-0.218166156499363,               121P    117
-0.218166156499363,1.26536370769588,1.26536370769588,                121P    118
1.26536370769588,1.,0.737277336810134,1.,-0.182568851450481,         121P    119
-30.7607353412922,0.,9.39932876308044D-18,-30.776708046107,0.,       121P    120
0.,-30.9599742809105,0.,-0.218166156499363,1.26536370769588,0.,      121P    121
0.,0.;                                                               121P    122
126,1,1,0,0,1,0,-3.45,-3.45,3.45,3.45,1.,1.,0.,                      123P    123
-30.9599742809105,0.,0.,-30.9599742809105,69.,-3.45,3.45,0.,0.,      123P    124
0.;                                                                  123P    125
126,2,2,0,0,0,0,-1.26536370769588,-1.26536370769588,                 125P    126
-1.26536370769588,0.21816615649935,0.21816615649935,                 125P    127
0.21816615649935,1.,0.737277336810063,1.,0.,-30.9599742809105,       125P    128
69.,-7.94790599668754D-18,-30.776708046107,69.,                      125P    129
-0.182568851450479,-30.7607353412922,69.,-1.26536370769588,          125P    130
0.21816615649935,0.,0.,0.;                                           125P    131
126,1,1,0,0,1,0,0.,0.,0.5,0.5,1.,1.,-2.80083015283887,-28.5,0.,      127P    132
2.19916984716113,-28.5,0.,0.,0.5,0.,0.,0.;                           127P    133
126,1,1,0,0,1,0,0.,0.,0.592983665345129,0.592983665345129,1.,1.,     129P    134
2.19916984716113,-28.5,0.,2.19916984716114,-34.4298366534513,0.,     129P    135
0.,0.592983665345129,0.,0.,0.;                                       129P    136
126,4,2,0,0,0,0,0.0637873012473301,0.0637873012473301,               131P    137
0.0637873012473301,1.5707963267949,1.5707963267949,                  131P    138
3.07780535234246,3.07780535234246,3.07780535234246,1.,               131P    139
0.729295568867966,1.,0.729295568867967,1.,2.19916984716113,          131P    140
34.4298366534513,0.,34.5,32.3666548723296,0.,34.5,                   131P    141
2.11251572852918D-15,0.,34.5,-32.3666548723296,0.,                   131P    142
2.19916984716114,-34.4298366534513,0.,0.0637873012473301,            131P    143
3.07780535234246,0.,0.,0.;                                           131P    144
126,1,1,0,0,1,0,1.29914536061718D-32,1.29914536061718D-32,           133P    145
0.592983665345129,0.592983665345129,1.,1.,2.19916984716112,28.5,     133P    146
0.,2.19916984716113,34.4298366534513,0.,1.29914536061718D-32,        133P    147
0.592983665345129,0.,0.,0.;                                          133P    148
126,1,1,0,0,1,0,0.,0.,0.6,0.6,1.,1.,-2.80083015283888,34.5,0.,       135P    149
-2.80083015283888,28.5,0.,0.,0.6,0.,0.,0.;                           135P    150
126,1,1,0,0,1,0,6.84599742809105,6.84599742809105,7.5,7.5,1.,1.,     137P    151
0.,30.9599742809105,0.,0.,37.5,0.,6.84599742809105,7.5,0.,0.,0.;     137P    152
126,4,2,0,0,0,0,0.,0.,0.,1.5707963267949,1.5707963267949,            139P    153
3.14159265358979,3.14159265358979,3.14159265358979,1.,               139P    154
0.707106781186547,1.,0.707106781186547,1.,0.,37.5,0.,37.5,37.5,      139P    155
0.,37.5,2.29621274840129D-15,0.,37.5,-37.5,0.,                       139P    156
4.59242549680258D-15,-37.5,0.,0.,3.14159265358979,0.,0.,0.;          139P    157
126,1,1,0,0,1,0,0.,0.,0.654002571908947,0.654002571908947,1.,1.,     141P    158
0.,-37.5,0.,0.,-30.9599742809105,0.,0.,0.654002571908947,0.,0.,      141P    159
0.;                                                                  141P    160
126,1,1,0,0,1,0,-0.125000000000001,-0.125000000000001,0.375,         143P    161
0.375,1.,1.,-2.80083015283888,-28.5,69.,2.19916984716113,-28.5,      143P    162
69.,-0.125000000000001,0.375,0.,0.,0.;                               143P    163
126,1,1,0,0,1,0,0.,0.,6.9,6.9,1.,1.,2.19916984716113,-28.5,0.,       145P    164
2.19916984716113,-28.5,69.,0.,6.9,0.,0.,0.;                          145P    165
126,1,1,0,0,1,0,-0.00400257190894449,-0.00400257190894449,           147P    166
0.350000000000003,0.350000000000003,1.,1.,7.09836911989195D-14,      147P    167
-30.9599742809105,69.,6.17284001691586D-13,-34.5,69.,                147P    168
-0.00400257190894449,0.350000000000003,0.,0.,0.;                     147P    169
126,2,2,0,0,0,0,-0.0637873012473303,-0.0637873012473303,             149P    170
-0.0637873012473303,0.,0.,0.,1.,0.999491440636324,1.,                149P    171
5.55111512312578D-16,-34.5,69.,1.10070418574335,-34.5,69.,           149P    172
2.19916984716114,-34.4298366534513,69.,-0.0637873012473303,0.,       149P    173
0.,0.,0.;                                                            149P    174
126,1,1,0,0,1,0,-0.15,-0.15,0.442983665345129,0.442983665345129,     151P    175
1.,1.,2.19916984716113,-28.5,69.,2.19916984716114,                   151P    176
-34.4298366534513,69.,-0.15,0.442983665345129,0.,0.,0.;              151P    177
126,1,1,0,0,1,0,0.,0.,7.,7.,1.,1.,4.59242549680258D-15,-37.5,0.,     153P    178
4.59242549680258D-15,-37.5,70.,0.,7.,0.,0.,0.;                       153P    179
126,1,1,0,0,1,0,0.,0.,0.299999999999999,0.299999999999999,1.,1.,     155P    180
0.,-37.5,70.,0.,-34.5,70.,0.,0.299999999999999,0.,0.,0.;             155P    181
126,1,1,0,0,1,0,0.,0.,0.0999999999999996,0.0999999999999996,1.,      157P    182
1.,0.,-34.5,70.,0.,-34.5,69.,0.,0.0999999999999996,0.,0.,0.;         157P    183
126,1,1,0,0,1,0,0.,0.,6.9,6.9,1.,1.,2.19916984716113,                159P    184
34.4298366534513,0.,2.19916984716113,34.4298366534513,69.,0.,        159P    185
6.9,0.,0.,0.;                                                        159P    186
126,1,1,0,0,1,0,0.,0.,6.9,6.9,1.,1.,2.19916984716114,                161P    187
-34.4298366534513,0.,2.19916984716114,-34.4298366534513,69.,0.,      161P    188
6.9,0.,0.,0.;                                                        161P    189
126,4,2,0,0,0,0,0.,0.,0.,1.5707963267949,1.5707963267949,            163P    190
3.14159265358979,3.14159265358979,3.14159265358979,1.,               163P    191
0.707106781186548,1.,0.707106781186548,1.,-3.88578058618805D-15,     163P    192
34.5,70.,34.5,34.5,70.,34.5,5.99829631471723D-15,70.,34.5,-34.5,     163P    193
70.,8.11081204324642D-15,-34.5,70.,0.,3.14159265358979,0.,0.,0.;     163P    194
126,1,1,0,0,1,0,-0.0999999999999996,-0.0999999999999996,0.,0.,       165P    195
1.,1.,0.,34.5,69.,0.,34.5,70.,-0.0999999999999996,0.,0.,0.,0.;       165P    196
126,1,1,0,0,1,0,0.,0.,7.,7.,1.,1.,0.,37.5,0.,0.,37.5,70.,0.,7.,      167P    197
0.,0.,0.;                                                            167P    198
126,4,2,0,0,0,0,0.,0.,0.,1.5707963267949,1.5707963267949,            169P    199
3.14159265358979,3.14159265358979,3.14159265358979,1.,               169P    200
0.707106781186547,1.,0.707106781186547,1.,0.,37.5,70.,37.5,37.5,     169P    201
70.,37.5,2.29621274840129D-15,70.,37.5,-37.5,70.,                    169P    202
4.59242549680258D-15,-37.5,70.,0.,3.14159265358979,0.,0.,0.;         169P    203
126,1,1,0,0,1,0,7.2,7.2,7.5,7.5,1.,1.,0.,34.5,70.,0.,37.5,70.,       171P    204
7.2,7.5,0.,0.,0.;                                                    171P    205
128,1,2,1,2,0,0,0,0,0,-172.5,-172.5,172.5,172.5,                     173P    206
-1.26536370769588,-1.26536370769588,-1.26536370769588,               173P    207
0.218166156499366,0.218166156499366,0.218166156499366,1.,1.,         173P    208
0.737277336810102,0.737277336810102,1.,1.,-1.36826314167671D-15,     173P    209
30.9599742809105,69.,-1.36826314167671D-15,30.9599742809105,0.,      173P    210
-9.97465998686664D-16,30.776708046107,69.,-9.97465998686664D-16,     173P    211
30.776708046107,0.,-0.182568851450481,30.7607353412922,69.,          173P    212
-0.182568851450481,30.7607353412922,0.,-172.5,172.5,                 173P    213
-1.26536370769588,0.218166156499366;                                 173P    214
128,1,1,1,1,0,0,1,0,0,-0.001,-0.001,0.457479927600429,               175P    215
0.457479927600429,-0.001,-0.001,6.901,6.901,1.,1.,1.,1.,             175P    216
-2.80656591720239,-34.5081915204429,-0.01,-0.176833087086968,        175P    217
-30.7525438208493,-0.01,-2.80656591720239,-34.5081915204429,         175P    218
69.01,-0.176833087086968,-30.7525438208493,69.01,-0.001,             175P    219
0.457479927600429,-0.001,6.901;                                      175P    220
128,1,1,1,1,0,0,1,0,0,-0.001,-0.001,0.601,0.601,-0.001,-0.001,       177P    221
6.901,6.901,1.,1.,1.,1.,-2.80083015283888,-28.49,-0.01,              177P    222
-2.80083015283888,-34.51,-0.01,-2.80083015283888,-28.49,69.01,       177P    223
-2.80083015283888,-34.51,69.01,-0.001,0.601,-0.001,6.901;            177P    224
128,1,1,1,1,0,0,1,0,0,-0.001,-0.001,0.501,0.501,-0.001,-0.001,       179P    225
6.901,6.901,1.,1.,1.,1.,-2.81083015283888,28.5,-0.01,                179P    226
2.20916984716112,28.5,-0.01,-2.81083015283888,28.5,69.01,            179P    227
2.20916984716112,28.5,69.01,-0.001,0.501,-0.001,6.901;               179P    228
128,1,1,1,1,0,0,1,0,0,-0.251,-0.251,0.251000000000001,               181P    229
0.251000000000001,-0.301000000000001,-0.301000000000001,             181P    230
0.301000000000002,0.301000000000002,1.,1.,1.,1.,                     181P    231
-2.81083015283888,28.49,69.,2.20916984716113,28.49,69.,              181P    232
-2.81083015283888,34.51,69.,2.20916984716113,34.51,69.,-0.251,       181P    233
0.251000000000001,-0.301000000000001,0.301000000000002;              181P    234
128,1,1,1,1,0,0,1,0,0,-0.001,-0.001,0.457479927600429,               183P    235
0.457479927600429,-0.001,-0.001,6.901,6.901,1.,1.,1.,1.,             183P    236
-0.176833087086968,30.7525438208493,-0.01,-2.80656591720239,         183P    237
34.5081915204429,-0.01,-0.176833087086968,30.7525438208493,          183P    238
69.01,-2.80656591720239,34.5081915204429,69.01,-0.001,               183P    239
0.457479927600429,-0.001,6.901;                                      183P    240
128,1,2,1,2,0,0,0,0,0,-172.5,-172.5,172.5,172.5,                     185P    241
-0.218166156499364,-0.218166156499364,-0.218166156499364,            185P    242
1.26536370769588,1.26536370769588,1.26536370769588,1.,1.,            185P    243
0.737277336810102,0.737277336810102,1.,1.,-0.182568851450481,        185P    244
-30.7607353412922,69.,-0.182568851450481,-30.7607353412922,0.,       185P    245
-9.71445146547012D-16,-30.776708046107,69.,                          185P    246
-9.71445146547012D-16,-30.776708046107,0.,-1.36392633298676D-15,     185P    247
-30.9599742809105,69.,-1.36392633298676D-15,-30.9599742809105,       185P    248
0.,-172.5,172.5,-0.218166156499364,1.26536370769588;                 185P    249
128,1,1,1,1,0,0,1,0,0,-2.01604150764194,-2.01604150764194,           187P    250
2.01604150764194,2.01604150764194,-3.751,-3.751,3.751,3.751,1.,      187P    251
1.,1.,1.,-2.81083015283888,37.51,0.,37.51,37.51,0.,                  187P    252
-2.81083015283888,-37.51,0.,37.51,-37.51,0.,-2.01604150764194,       187P    253
2.01604150764194,-3.751,3.751;                                       187P    254
128,1,1,1,1,0,0,1,0,0,-0.00100000000000067,-0.00100000000000067,     189P    255
0.501,0.501,-0.001,-0.001,6.901,6.901,1.,1.,1.,1.,                   189P    256
2.20916984716113,-28.5,-0.01,-2.81083015283888,-28.5,-0.01,          189P    257
2.20916984716113,-28.5,69.01,-2.81083015283888,-28.5,69.01,          189P    258
-0.00100000000000067,0.501,-0.001,6.901;                             189P    259
128,1,1,1,1,0,0,1,0,0,-0.251,-0.251,0.251000000000001,               191P    260
0.251000000000001,-0.301000000000001,-0.301000000000001,             191P    261
0.301000000000001,0.301000000000001,1.,1.,1.,1.,                     191P    262
-2.81083015283888,-34.51,69.,2.20916984716114,-34.51,69.,            191P    263
-2.81083015283888,-28.49,69.,2.20916984716114,-28.49,69.,-0.251,     191P    264
0.251000000000001,-0.301000000000001,0.301000000000001;              191P    265
128,1,1,1,1,0,0,1,0,0,-0.001,-0.001,0.655002571908947,               193P    266
0.655002571908947,-0.001,-0.001,7.001,7.001,1.,1.,1.,1.,0.,          193P    267
-30.9499742809105,-0.01,0.,-37.51,-0.01,0.,-30.9499742809105,        193P    268
70.01,0.,-37.51,70.01,-0.001,0.655002571908947,-0.001,7.001;         193P    269
128,1,1,1,1,0,0,1,0,0,-0.00100000000000044,-0.00100000000000044,     195P    270
0.593983665345129,0.593983665345129,-0.001,-0.001,6.901,6.901,       195P    271
1.,1.,1.,1.,2.19916984716112,28.49,-0.01,2.19916984716113,           195P    272
34.4398366534513,-0.01,2.19916984716112,28.49,69.01,                 195P    273
2.19916984716113,34.4398366534513,69.01,-0.00100000000000044,        195P    274
0.593983665345129,-0.001,6.901;                                      195P    275
128,1,1,1,1,0,0,1,0,0,-0.001,-0.001,0.601,0.601,-0.001,-0.001,       197P    276
6.901,6.901,1.,1.,1.,1.,-2.80083015283888,34.51,-0.01,               197P    277
-2.80083015283888,28.49,-0.01,-2.80083015283888,34.51,69.01,         197P    278
-2.80083015283888,28.49,69.01,-0.001,0.601,-0.001,6.901;             197P    279
128,1,4,1,2,0,0,0,0,0,0.,0.,2.02898550724638,2.02898550724638,       199P    280
-1.12631321338784D-16,-1.12631321338784D-16,                         199P    281
-1.12631321338784D-16,1.5707963267949,1.5707963267949,               199P    282
3.14159265358979,3.14159265358979,3.14159265358979,1.,1.,            199P    283
0.707106781186548,0.707106781186548,1.,1.,0.707106781186548,         199P    284
0.707106781186548,1.,1.,0.,34.5,70.,0.,34.5,0.,34.5,34.5,70.,        199P    285
34.5,34.5,0.,34.5,0.,70.,34.5,0.,0.,34.5,-34.5,70.,34.5,-34.5,       199P    286
0.,0.,-34.5,70.,0.,-34.5,0.,0.,2.02898550724638,                     199P    287
-1.12631321338784D-16,3.14159265358979;                              199P    288
128,1,1,1,1,0,0,1,0,0,-0.001,-0.001,0.593983665345129,               201P    289
0.593983665345129,-0.001,-0.001,6.901,6.901,1.,1.,1.,1.,             201P    290
2.19916984716114,-34.4398366534513,-0.01,2.19916984716113,           201P    291
-28.49,-0.01,2.19916984716114,-34.4398366534513,69.01,               201P    292
2.19916984716113,-28.49,69.01,-0.001,0.593983665345129,-0.001,       201P    293
6.901;                                                               201P    294
128,1,4,1,2,0,0,0,0,0,0.,0.,1.86666666666667,1.86666666666667,       203P    295
0.,0.,0.,1.5707963267949,1.5707963267949,3.14159265358979,           203P    296
3.14159265358979,3.14159265358979,1.,1.,0.707106781186548,           203P    297
0.707106781186548,1.,1.,0.707106781186548,0.707106781186548,1.,      203P    298
1.,0.,37.5,0.,0.,37.5,70.,37.5,37.5,0.,37.5,37.5,70.,37.5,0.,0.,     203P    299
37.5,0.,70.,37.5,-37.5,0.,37.5,-37.5,70.,0.,-37.5,0.,0.,-37.5,       203P    300
70.,0.,1.86666666666667,0.,3.14159265358979;                         203P    301
128,1,1,1,1,0,0,1,0,0,0.0449974280910531,0.0449974280910531,         205P    302
0.701,0.701,-0.001,-0.001,7.001,7.001,1.,1.,1.,1.,0.,37.51,          205P    303
-0.01,0.,30.9499742809105,-0.01,0.,37.51,70.01,0.,                   205P    304
30.9499742809105,70.01,0.0449974280910531,0.701,-0.001,7.001;        205P    305
128,1,1,1,1,0,0,1,0,0,-1.73595849235806,-1.73595849235806,           207P    306
2.01604150764194,2.01604150764194,-3.751,-3.751,3.751,3.751,1.,      207P    307
1.,1.,1.,37.51,37.51,70.,-0.0100000000000033,37.51,70.,37.51,        207P    308
-37.51,70.,-0.0100000000000033,-37.51,70.,-1.73595849235806,         207P    309
2.01604150764194,-3.751,3.751;                                       207P    310
502,32,-0.182568851450479,30.7607353412922,69.,                      209P    311
-0.182568851450481,30.7607353412922,0.,7.09836911989195D-14,         209P    312
30.9599742809105,69.,0.,30.9599742809105,0.,-0.182568851450479,      209P    313
-30.7607353412922,69.,-0.182568851450481,-30.7607353412922,0.,       209P    314
-2.80083015283888,-34.5,69.,-2.80083015283888,-34.5,0.,              209P    315
-2.80083015283888,-28.5,69.,-2.80083015283888,-28.5,0.,              209P    316
2.19916984716112,28.5,69.,-2.80083015283888,28.5,69.,                209P    317
-2.80083015283888,28.5,0.,2.19916984716112,28.5,0.,                  209P    318
2.19916984716113,34.4298366534513,69.,-3.88578058618805D-15,         209P    319
34.5,69.,-2.80083015283888,34.5,69.,-2.80083015283888,34.5,0.,       209P    320
0.,-30.9599742809105,0.,7.09836911989195D-14,-30.9599742809105,      209P    321
69.,2.19916984716113,-28.5,0.,2.19916984716114,                      209P    322
-34.4298366534513,0.,2.19916984716113,34.4298366534513,0.,0.,        209P    323
37.5,0.,4.59242549680258D-15,-37.5,0.,2.19916984716113,-28.5,        209P    324
69.,5.55111512312578D-16,-34.5,69.,2.19916984716114,                 209P    325
-34.4298366534513,69.,4.59242549680258D-15,-37.5,70.,                209P    326
5.55111512312578D-16,-34.5,70.,-3.88578058618805D-15,34.5,70.,       209P    327
0.,37.5,70.;                                                         209P    328
504,48,77,209,1,209,2,79,209,1,209,3,81,209,4,209,3,83,209,4,        211P    329
209,2,85,209,5,209,6,87,209,5,209,7,89,209,8,209,7,91,209,6,209,     211P    330
8,93,209,7,209,9,95,209,10,209,9,97,209,8,209,10,99,209,11,209,      211P    331
12,101,209,13,209,12,103,209,13,209,14,105,209,14,209,11,107,        211P    332
209,15,209,11,109,209,15,209,16,111,209,3,209,16,113,209,17,209,     211P    333
1,115,209,12,209,17,117,209,2,209,18,119,209,18,209,17,121,209,      211P    334
6,209,19,123,209,19,209,20,125,209,20,209,5,127,209,10,209,21,       211P    335
129,209,21,209,22,131,209,23,209,22,133,209,14,209,23,135,209,       211P    336
18,209,13,137,209,4,209,24,139,209,24,209,25,141,209,25,209,19,      211P    337
143,209,9,209,26,145,209,21,209,26,147,209,20,209,27,149,209,27,     211P    338
209,28,151,209,26,209,28,153,209,25,209,29,155,209,29,209,30,        211P    339
157,209,30,209,27,159,209,23,209,15,161,209,22,209,28,163,209,       211P    340
31,209,30,165,209,16,209,31,167,209,24,209,32,169,209,32,209,29,     211P    341
171,209,31,209,32;                                                   211P    342
406,1,5HBody4;                                                       213P    343
314,62.7450980392157,62.7450980392157,62.7450980392157,13HSteel      215P    344
- Satin;                                                             215P    345
S      1G      3D    216P    345                                        T      1
