                                                                        S      1
,,24H5x10x4_thrust_bearing v3,24H5x10x4_thrust_bearing v3,7Hunknown,7HunG      1
known,32,38,7,99,15,,1.,2,2HMM,1,0.08,15H20200329.203519,0.01,10000.,7HuG      2
nknown,7Hunknown,11,0,15H20191113.062024;                               G      3
     408       1                                                00000001D      1
     408       0               1       0                               0D      2
     308       2                                                00010200D      3
     308       0               1       0                               0D      4
     186       3                                                00010000D      5
     186             -57       1       0                               0D      6
     514       4                                                00010000D      7
     514                       1       1                               0D      8
     510       5                                                00010000D      9
     510             -57       1       1                               0D     10
     510       6                                                00010000D     11
     510             -57       1       1                               0D     12
     510       7                                                00010000D     13
     510             -57       1       1                               0D     14
     510       8                                                00010000D     15
     510             -57       1       1                               0D     16
     508       9                                                00010000D     17
     508                       1       1                               0D     18
     508      10                                                00010000D     19
     508                       1       1                               0D     20
     508      11                                                00010000D     21
     508                       1       1                               0D     22
     508      12                                                00010000D     23
     508                       1       1                               0D     24
     508      13                                                00010000D     25
     508                       1       1                               0D     26
     508      14                                                00010000D     27
     508                       1       1                               0D     28
     126      15                                                00010000D     29
     126       0               9       0                               0D     30
     126      24                                                00010000D     31
     126       0               2       0                               0D     32
     126      26                                                00010000D     33
     126       0               9       0                               0D     34
     126      35                                                00010000D     35
     126       0               9       0                               0D     36
     126      44                                                00010000D     37
     126       0               2       0                               0D     38
     126      46                                                00010000D     39
     126       0               9       0                               0D     40
     128      55                                                00010000D     41
     128       0     -57      11       0                               0D     42
     128      66                                                00010000D     43
     128       0     -57      11       0                               0D     44
     128      77                                                00010000D     45
     128       0     -57       3       0                               0D     46
     128      80                                                00010000D     47
     128       0     -57       3       0                               0D     48
     502      83                                                00010000D     49
     502                       2       1                               0D     50
     504      85                                                00010001D     51
     504                       2       1                               0D     52
     406      87                                                00000000D     53
     406                       1      15                               0D     54
     406      88                                                00000000D     55
     406                       1      15                               0D     56
     314      89                                                00000200D     57
     314                       2       0                               0D     58
408,3,0.,0.,0.,1.,0,1,55;                                              1P      1
308,0,18H5mm_thrust_bearing,1,5;                                       3P      2
186,7,1,0,0,1,53;                                                      5P      3
514,4,9,1,11,1,13,1,15,1;                                              7P      4
510,41,1,1,17;                                                         9P      5
510,43,1,1,19;                                                        11P      6
510,45,2,1,21,23;                                                     13P      7
510,47,2,1,25,27;                                                     15P      8
508,4,0,51,1,0,0,0,51,2,1,0,0,51,3,1,0,0,51,2,0,0;                    17P      9
508,4,0,51,4,0,0,0,51,5,1,0,0,51,6,1,0,0,51,5,0,0;                    19P     10
508,1,0,51,4,1,0;                                                     21P     11
508,1,0,51,1,1,0;                                                     23P     12
508,1,0,51,6,0,0;                                                     25P     13
508,1,0,51,3,0,0;                                                     27P     14
126,8,2,0,1,0,0,-3.14159265358979,-3.14159265358979,                  29P     15
-3.14159265358979,-1.5707963267949,-1.5707963267949,0.,0.,            29P     16
1.5707963267949,1.5707963267949,3.14159265358979,                     29P     17
3.14159265358979,3.14159265358979,1.,0.707106781186548,1.,            29P     18
0.707106781186548,1.,0.707106781186548,1.,0.707106781186548,1.,       29P     19
-2.5,3.06161699786838D-16,4.,-2.5,2.5,4.,1.53080849893419D-16,        29P     20
2.5,4.,2.5,2.5,4.,2.5,0.,4.,2.5,-2.5,4.,1.53080849893419D-16,         29P     21
-2.5,4.,-2.5,-2.5,4.,-2.5,-3.06161699786838D-16,4.,                   29P     22
-3.14159265358979,3.14159265358979,0.,0.,0.;                          29P     23
126,1,1,0,0,1,0,-1.6,-1.6,0.,0.,1.,1.,-2.5,0.,4.,-2.5,0.,0.,          31P     24
-1.6,0.,0.,0.,0.;                                                     31P     25
126,8,2,0,1,0,0,-3.14159265358979,-3.14159265358979,                  33P     26
-3.14159265358979,-1.5707963267949,-1.5707963267949,0.,0.,            33P     27
1.5707963267949,1.5707963267949,3.14159265358979,                     33P     28
3.14159265358979,3.14159265358979,1.,0.707106781186548,1.,            33P     29
0.707106781186548,1.,0.707106781186548,1.,0.707106781186548,1.,       33P     30
-2.5,3.06161699786838D-16,0.,-2.5,2.5,0.,1.53080849893419D-16,        33P     31
2.5,0.,2.5,2.5,0.,2.5,0.,0.,2.5,-2.5,0.,1.53080849893419D-16,         33P     32
-2.5,0.,-2.5,-2.5,0.,-2.5,-3.06161699786838D-16,0.,                   33P     33
-3.14159265358979,3.14159265358979,0.,0.,0.;                          33P     34
126,8,2,0,1,0,0,-3.14159265358979,-3.14159265358979,                  35P     35
-3.14159265358979,-1.5707963267949,-1.5707963267949,0.,0.,            35P     36
1.5707963267949,1.5707963267949,3.14159265358979,                     35P     37
3.14159265358979,3.14159265358979,1.,0.707106781186548,1.,            35P     38
0.707106781186547,1.,0.707106781186547,1.,0.707106781186548,1.,       35P     39
-5.,-6.12323399573677D-16,4.,-5.,-5.,4.,3.06161699786838D-16,         35P     40
-5.,4.,5.,-5.,4.,5.,0.,4.,5.,5.,4.,3.06161699786838D-16,5.,4.,        35P     41
-5.,5.,4.,-5.,6.12323399573677D-16,4.,-3.14159265358979,              35P     42
3.14159265358979,0.,0.,0.;                                            35P     43
126,1,1,0,0,1,0,-0.8,-0.8,0.,0.,1.,1.,-5.,0.,4.,-5.,0.,0.,-0.8,       37P     44
0.,0.,0.,0.;                                                          37P     45
126,8,2,0,1,0,0,-3.14159265358979,-3.14159265358979,                  39P     46
-3.14159265358979,-1.5707963267949,-1.5707963267949,0.,0.,            39P     47
1.5707963267949,1.5707963267949,3.14159265358979,                     39P     48
3.14159265358979,3.14159265358979,1.,0.707106781186548,1.,            39P     49
0.707106781186547,1.,0.707106781186547,1.,0.707106781186548,1.,       39P     50
-5.,-6.12323399573677D-16,0.,-5.,-5.,0.,3.06161699786838D-16,         39P     51
-5.,0.,5.,-5.,0.,5.,0.,0.,5.,5.,0.,3.06161699786838D-16,5.,0.,        39P     52
-5.,5.,0.,-5.,6.12323399573677D-16,0.,-3.14159265358979,              39P     53
3.14159265358979,0.,0.,0.;                                            39P     54
128,1,8,1,2,0,1,0,0,1,0.,0.,1.6,1.6,-3.14159265358979,                41P     55
-3.14159265358979,-3.14159265358979,-1.5707963267949,                 41P     56
-1.5707963267949,0.,0.,1.5707963267949,1.5707963267949,               41P     57
3.14159265358979,3.14159265358979,3.14159265358979,1.,1.,             41P     58
0.707106781186548,0.707106781186548,1.,1.,0.707106781186548,          41P     59
0.707106781186548,1.,1.,0.707106781186548,0.707106781186548,1.,       41P     60
1.,0.707106781186548,0.707106781186548,1.,1.,-2.5,0.,0.,-2.5,0.,      41P     61
4.,-2.5,-2.5,0.,-2.5,-2.5,4.,0.,-2.5,0.,0.,-2.5,4.,2.5,-2.5,0.,       41P     62
2.5,-2.5,4.,2.5,0.,0.,2.5,0.,4.,2.5,2.5,0.,2.5,2.5,4.,0.,2.5,0.,      41P     63
0.,2.5,4.,-2.5,2.5,0.,-2.5,2.5,4.,-2.5,0.,0.,-2.5,0.,4.,0.,1.6,       41P     64
-3.14159265358979,3.14159265358979;                                   41P     65
128,1,8,1,2,0,1,0,0,1,0.,0.,0.8,0.8,-3.14159265358979,                43P     66
-3.14159265358979,-3.14159265358979,-1.5707963267949,                 43P     67
-1.5707963267949,0.,0.,1.5707963267949,1.5707963267949,               43P     68
3.14159265358979,3.14159265358979,3.14159265358979,1.,1.,             43P     69
0.707106781186548,0.707106781186548,1.,1.,0.707106781186548,          43P     70
0.707106781186548,1.,1.,0.707106781186548,0.707106781186548,1.,       43P     71
1.,0.707106781186548,0.707106781186548,1.,1.,-5.,0.,4.,-5.,0.,        43P     72
0.,-5.,-5.,4.,-5.,-5.,0.,0.,-5.,4.,0.,-5.,0.,5.,-5.,4.,5.,-5.,        43P     73
0.,5.,0.,4.,5.,0.,0.,5.,5.,4.,5.,5.,0.,0.,5.,4.,0.,5.,0.,-5.,5.,      43P     74
4.,-5.,5.,0.,-5.,0.,4.,-5.,0.,0.,0.,0.8,-3.14159265358979,            43P     75
3.14159265358979;                                                     43P     76
128,1,1,1,1,0,0,1,0,0,-0.501,-0.501,0.501,0.501,-0.501,-0.501,        45P     77
0.501,0.501,1.,1.,1.,1.,-5.01,-5.01,4.,5.01,-5.01,4.,-5.01,5.01,      45P     78
4.,5.01,5.01,4.,-0.501,0.501,-0.501,0.501;                            45P     79
128,1,1,1,1,0,0,1,0,0,-0.501,-0.501,0.501,0.501,-0.501,-0.501,        47P     80
0.501,0.501,1.,1.,1.,1.,5.01,-5.01,0.,-5.01,-5.01,0.,5.01,5.01,       47P     81
0.,-5.01,5.01,0.,-0.501,0.501,-0.501,0.501;                           47P     82
502,4,-2.5,-3.06161699786838D-16,4.,-2.5,-3.06161699786838D-16,       49P     83
0.,-5.,-6.12323399573677D-16,4.,-5.,-6.12323399573677D-16,0.;         49P     84
504,6,29,49,1,49,1,31,49,1,49,2,33,49,2,49,2,35,49,3,49,3,37,49,      51P     85
3,49,4,39,49,4,49,4;                                                  51P     86
406,1,5HBody1;                                                        53P     87
406,1,20H5mm_thrust_bearing:1;                                        55P     88
314,62.7450980392157,62.7450980392157,62.7450980392157,13HSteel       57P     89
- Satin;                                                              57P     90
S      1G      3D     58P     90                                        T      1
