                                                                        S      1
,,20H6mm_bearing_cheap v1,20H6mm_bearing_cheap v1,7Hunknown,7Hunknown,  G      1
32,38,7,99,15,,1.,2,2HMM,1,0.08,15H20200329.203535,0.01,10000.,7HunknownG      2
,7Hunknown,11,0,15H20191112.024447;                                     G      3
     408       1                                                00000001D      1
     408       0               1       0                               0D      2
     308       2                                                00010200D      3
     308       0               1       0                               0D      4
     186       3                                                00010000D      5
     186             -57       1       0                               0D      6
     514       4                                                00010000D      7
     514                       1       1                               0D      8
     510       5                                                00010000D      9
     510             -57       1       1                               0D     10
     510       6                                                00010000D     11
     510             -57       1       1                               0D     12
     510       7                                                00010000D     13
     510             -57       1       1                               0D     14
     510       8                                                00010000D     15
     510             -57       1       1                               0D     16
     508       9                                                00010000D     17
     508                       1       1                               0D     18
     508      10                                                00010000D     19
     508                       1       1                               0D     20
     508      11                                                00010000D     21
     508                       1       1                               0D     22
     508      12                                                00010000D     23
     508                       1       1                               0D     24
     508      13                                                00010000D     25
     508                       1       1                               0D     26
     508      14                                                00010000D     27
     508                       1       1                               0D     28
     126      15                                                00010000D     29
     126       0               9       0                               0D     30
     126      24                                                00010000D     31
     126       0               2       0                               0D     32
     126      26                                                00010000D     33
     126       0               9       0                               0D     34
     126      35                                                00010000D     35
     126       0               9       0                               0D     36
     126      44                                                00010000D     37
     126       0               2       0                               0D     38
     126      46                                                00010000D     39
     126       0               9       0                               0D     40
     128      55                                                00010000D     41
     128       0     -57      11       0                               0D     42
     128      66                                                00010000D     43
     128       0     -57      12       0                               0D     44
     128      78                                                00010000D     45
     128       0     -57       3       0                               0D     46
     128      81                                                00010000D     47
     128       0     -57       3       0                               0D     48
     502      84                                                00010000D     49
     502                       2       1                               0D     50
     504      86                                                00010001D     51
     504                       2       1                               0D     52
     406      88                                                00000000D     53
     406                       1      15                               0D     54
     406      89                                                00000000D     55
     406                       1      15                               0D     56
     314      90                                                00000200D     57
     314                       2       0                               0D     58
408,3,0.,0.,0.,1.,0,1,55;                                              1P      1
308,0,17H6mm_bearing_cheap,1,5;                                        3P      2
186,7,1,0,0,1,53;                                                      5P      3
514,4,9,1,11,1,13,1,15,1;                                              7P      4
510,41,1,1,17;                                                         9P      5
510,43,1,1,19;                                                        11P      6
510,45,2,1,21,23;                                                     13P      7
510,47,2,1,25,27;                                                     15P      8
508,4,0,51,1,0,0,0,51,2,1,0,0,51,3,1,0,0,51,2,0,0;                    17P      9
508,4,0,51,4,0,0,0,51,5,1,0,0,51,6,1,0,0,51,5,0,0;                    19P     10
508,1,0,51,4,1,0;                                                     21P     11
508,1,0,51,1,1,0;                                                     23P     12
508,1,0,51,6,0,0;                                                     25P     13
508,1,0,51,3,0,0;                                                     27P     14
126,8,2,0,1,0,0,-3.14159265358979,-3.14159265358979,                  29P     15
-3.14159265358979,-1.5707963267949,-1.5707963267949,0.,0.,            29P     16
1.5707963267949,1.5707963267949,3.14159265358979,                     29P     17
3.14159265358979,3.14159265358979,1.,0.707106781186548,1.,            29P     18
0.707106781186548,1.,0.707106781186548,1.,0.707106781186548,1.,       29P     19
-3.,3.67394039744206D-16,5.,-3.,3.,5.,1.83697019872103D-16,3.,        29P     20
5.,3.,3.,5.,3.,0.,5.,3.,-3.,5.,1.83697019872103D-16,-3.,5.,-3.,       29P     21
-3.,5.,-3.,-3.67394039744206D-16,5.,-3.14159265358979,                29P     22
3.14159265358979,0.,0.,0.;                                            29P     23
126,1,1,0,0,1,0,-1.66666666666667,-1.66666666666667,0.,0.,1.,1.,      31P     24
-3.,0.,5.,-3.,0.,0.,-1.66666666666667,0.,0.,0.,0.;                    31P     25
126,8,2,0,1,0,0,-3.14159265358979,-3.14159265358979,                  33P     26
-3.14159265358979,-1.5707963267949,-1.5707963267949,0.,0.,            33P     27
1.5707963267949,1.5707963267949,3.14159265358979,                     33P     28
3.14159265358979,3.14159265358979,1.,0.707106781186548,1.,            33P     29
0.707106781186548,1.,0.707106781186548,1.,0.707106781186548,1.,       33P     30
-3.,3.67394039744206D-16,0.,-3.,3.,0.,1.83697019872103D-16,3.,        33P     31
0.,3.,3.,0.,3.,0.,0.,3.,-3.,0.,1.83697019872103D-16,-3.,0.,-3.,       33P     32
-3.,0.,-3.,-3.67394039744206D-16,0.,-3.14159265358979,                33P     33
3.14159265358979,0.,0.,0.;                                            33P     34
126,8,2,0,1,0,0,-3.14159265358979,-3.14159265358979,                  35P     35
-3.14159265358979,-1.5707963267949,-1.5707963267949,0.,0.,            35P     36
1.5707963267949,1.5707963267949,3.14159265358979,                     35P     37
3.14159265358979,3.14159265358979,1.,0.707106781186548,1.,            35P     38
0.707106781186548,1.,0.707106781186548,1.,0.707106781186548,1.,       35P     39
-7.5,-9.18485099360515D-16,5.,-7.5,-7.5,5.,4.59242549680258D-16,      35P     40
-7.5,5.,7.5,-7.5,5.,7.5,0.,5.,7.5,7.5,5.,4.59242549680258D-16,        35P     41
7.5,5.,-7.5,7.5,5.,-7.5,9.18485099360515D-16,5.,                      35P     42
-3.14159265358979,3.14159265358979,0.,0.,0.;                          35P     43
126,1,1,0,0,1,0,-0.666666666666667,-0.666666666666667,0.,0.,1.,       37P     44
1.,-7.5,0.,5.,-7.5,0.,0.,-0.666666666666667,0.,0.,0.,0.;              37P     45
126,8,2,0,1,0,0,-3.14159265358979,-3.14159265358979,                  39P     46
-3.14159265358979,-1.5707963267949,-1.5707963267949,0.,0.,            39P     47
1.5707963267949,1.5707963267949,3.14159265358979,                     39P     48
3.14159265358979,3.14159265358979,1.,0.707106781186548,1.,            39P     49
0.707106781186548,1.,0.707106781186548,1.,0.707106781186548,1.,       39P     50
-7.5,-9.18485099360515D-16,0.,-7.5,-7.5,0.,4.59242549680258D-16,      39P     51
-7.5,0.,7.5,-7.5,0.,7.5,0.,0.,7.5,7.5,0.,4.59242549680258D-16,        39P     52
7.5,0.,-7.5,7.5,0.,-7.5,9.18485099360515D-16,0.,                      39P     53
-3.14159265358979,3.14159265358979,0.,0.,0.;                          39P     54
128,1,8,1,2,0,1,0,0,1,0.,0.,1.66666666666667,1.66666666666667,        41P     55
-3.14159265358979,-3.14159265358979,-3.14159265358979,                41P     56
-1.5707963267949,-1.5707963267949,0.,0.,1.5707963267949,              41P     57
1.5707963267949,3.14159265358979,3.14159265358979,                    41P     58
3.14159265358979,1.,1.,0.707106781186548,0.707106781186548,1.,        41P     59
1.,0.707106781186548,0.707106781186548,1.,1.,0.707106781186548,       41P     60
0.707106781186548,1.,1.,0.707106781186548,0.707106781186548,1.,       41P     61
1.,-3.,0.,0.,-3.,0.,5.,-3.,-3.,0.,-3.,-3.,5.,0.,-3.,0.,0.,-3.,        41P     62
5.,3.,-3.,0.,3.,-3.,5.,3.,0.,0.,3.,0.,5.,3.,3.,0.,3.,3.,5.,0.,        41P     63
3.,0.,0.,3.,5.,-3.,3.,0.,-3.,3.,5.,-3.,0.,0.,-3.,0.,5.,0.,            41P     64
1.66666666666667,-3.14159265358979,3.14159265358979;                  41P     65
128,1,8,1,2,0,1,0,0,1,0.,0.,0.666666666666667,0.666666666666667,      43P     66
-3.14159265358979,-3.14159265358979,-3.14159265358979,                43P     67
-1.5707963267949,-1.5707963267949,0.,0.,1.5707963267949,              43P     68
1.5707963267949,3.14159265358979,3.14159265358979,                    43P     69
3.14159265358979,1.,1.,0.707106781186548,0.707106781186548,1.,        43P     70
1.,0.707106781186548,0.707106781186548,1.,1.,0.707106781186548,       43P     71
0.707106781186548,1.,1.,0.707106781186548,0.707106781186548,1.,       43P     72
1.,-7.5,0.,5.,-7.5,0.,0.,-7.5,-7.5,5.,-7.5,-7.5,0.,0.,-7.5,5.,        43P     73
0.,-7.5,0.,7.5,-7.5,5.,7.5,-7.5,0.,7.5,0.,5.,7.5,0.,0.,7.5,7.5,       43P     74
5.,7.5,7.5,0.,0.,7.5,5.,0.,7.5,0.,-7.5,7.5,5.,-7.5,7.5,0.,-7.5,       43P     75
0.,5.,-7.5,0.,0.,0.,0.666666666666667,-3.14159265358979,              43P     76
3.14159265358979;                                                     43P     77
128,1,1,1,1,0,0,1,0,0,-0.751,-0.751,0.751,0.751,-0.751,-0.751,        45P     78
0.751,0.751,1.,1.,1.,1.,-7.51,-7.51,5.,7.51,-7.51,5.,-7.51,7.51,      45P     79
5.,7.51,7.51,5.,-0.751,0.751,-0.751,0.751;                            45P     80
128,1,1,1,1,0,0,1,0,0,-0.751,-0.751,0.751,0.751,-0.751,-0.751,        47P     81
0.751,0.751,1.,1.,1.,1.,7.51,-7.51,0.,-7.51,-7.51,0.,7.51,7.51,       47P     82
0.,-7.51,7.51,0.,-0.751,0.751,-0.751,0.751;                           47P     83
502,4,-3.,-3.67394039744206D-16,5.,-3.,-3.67394039744206D-16,0.,      49P     84
-7.5,-9.18485099360515D-16,5.,-7.5,-9.18485099360515D-16,0.;          49P     85
504,6,29,49,1,49,1,31,49,1,49,2,33,49,2,49,2,35,49,3,49,3,37,49,      51P     86
3,49,4,39,49,4,49,4;                                                  51P     87
406,1,5HBody1;                                                        53P     88
406,1,19H6mm_bearing_cheap:1;                                         55P     89
314,62.7450980392157,62.7450980392157,62.7450980392157,13HSteel       57P     90
- Satin;                                                              57P     91
S      1G      3D     58P     91                                        T      1
