                                                                        S      1
,,10Hbed_top v4,10Hbed_top v4,7Hunknown,7Hunknown,32,38,7,99,15,,1.,2,2HG      1
MM,1,0.08,15H20200329.203553,0.01,10000.,7Hunknown,7Hunknown,11,0,15H201G      2
91203.144013;                                                           G      3
     408       1                                                00010001D      1
     408       0               1       0                               0D      2
     408       2                                                00000001D      3
     408       0               1       0                               0D      4
     308       3                                                00010200D      5
     308       0               1       0                               0D      6
     308       4                                                00010200D      7
     308       0               1       0                               0D      8
     186       5                                                00010000D      9
     186            -215       1       0                               0D     10
     514       6                                                00010000D     11
     514                       2       1                               0D     12
     510       8                                                00010000D     13
     510            -215       1       1                               0D     14
     510       9                                                00010000D     15
     510            -215       1       1                               0D     16
     510      10                                                00010000D     17
     510            -215       1       1                               0D     18
     510      11                                                00010000D     19
     510            -215       1       1                               0D     20
     510      12                                                00010000D     21
     510            -215       1       1                               0D     22
     510      13                                                00010000D     23
     510            -215       1       1                               0D     24
     510      14                                                00010000D     25
     510            -215       1       1                               0D     26
     510      15                                                00010000D     27
     510            -215       1       1                               0D     28
     510      16                                                00010000D     29
     510            -215       1       1                               0D     30
     510      17                                                00010000D     31
     510            -215       1       1                               0D     32
     510      18                                                00010000D     33
     510            -215       1       1                               0D     34
     510      19                                                00010000D     35
     510            -215       1       1                               0D     36
     510      20                                                00010000D     37
     510            -215       1       1                               0D     38
     510      21                                                00010000D     39
     510            -215       1       1                               0D     40
     510      22                                                00010000D     41
     510            -215       1       1                               0D     42
     510      23                                                00010000D     43
     510            -215       1       1                               0D     44
     510      24                                                00010000D     45
     510            -215       1       1                               0D     46
     510      25                                                00010000D     47
     510            -215       1       1                               0D     48
     508      26                                                00010000D     49
     508                       1       1                               0D     50
     508      27                                                00010000D     51
     508                       1       1                               0D     52
     508      28                                                00010000D     53
     508                       1       1                               0D     54
     508      29                                                00010000D     55
     508                       1       1                               0D     56
     508      30                                                00010000D     57
     508                       1       1                               0D     58
     508      31                                                00010000D     59
     508                       1       1                               0D     60
     508      32                                                00010000D     61
     508                       1       1                               0D     62
     508      33                                                00010000D     63
     508                       1       1                               0D     64
     508      34                                                00010000D     65
     508                       1       1                               0D     66
     508      35                                                00010000D     67
     508                       1       1                               0D     68
     508      36                                                00010000D     69
     508                       1       1                               0D     70
     508      37                                                00010000D     71
     508                       1       1                               0D     72
     508      38                                                00010000D     73
     508                       1       1                               0D     74
     508      39                                                00010000D     75
     508                       1       1                               0D     76
     508      40                                                00010000D     77
     508                       1       1                               0D     78
     508      41                                                00010000D     79
     508                       1       1                               0D     80
     508      42                                                00010000D     81
     508                       1       1                               0D     82
     508      43                                                00010000D     83
     508                       1       1                               0D     84
     508      44                                                00010000D     85
     508                       1       1                               0D     86
     508      45                                                00010000D     87
     508                       1       1                               0D     88
     508      46                                                00010000D     89
     508                       1       1                               0D     90
     126      47                                                00010000D     91
     126       0               8       0                               0D     92
     126      55                                                00010000D     93
     126       0               3       0                               0D     94
     126      58                                                00010000D     95
     126       0               8       0                               0D     96
     126      66                                                00010000D     97
     126       0               3       0                               0D     98
     126      69                                                00010000D     99
     126       0               5       0                               0D    100
     126      74                                                00010000D    101
     126       0               5       0                               0D    102
     126      79                                                00010000D    103
     126       0               3       0                               0D    104
     126      82                                                00010000D    105
     126       0               8       0                               0D    106
     126      90                                                00010000D    107
     126       0               8       0                               0D    108
     126      98                                                00010000D    109
     126       0               3       0                               0D    110
     126     101                                                00010000D    111
     126       0               6       0                               0D    112
     126     107                                                00010000D    113
     126       0               6       0                               0D    114
     126     113                                                00010000D    115
     126       0               8       0                               0D    116
     126     121                                                00010000D    117
     126       0               3       0                               0D    118
     126     124                                                00010000D    119
     126       0               8       0                               0D    120
     126     132                                                00010000D    121
     126       0               3       0                               0D    122
     126     135                                                00010000D    123
     126       0               5       0                               0D    124
     126     140                                                00010000D    125
     126       0               5       0                               0D    126
     126     145                                                00010000D    127
     126       0               3       0                               0D    128
     126     148                                                00010000D    129
     126       0               8       0                               0D    130
     126     156                                                00010000D    131
     126       0               8       0                               0D    132
     126     164                                                00010000D    133
     126       0               3       0                               0D    134
     126     167                                                00010000D    135
     126       0               6       0                               0D    136
     126     173                                                00010000D    137
     126       0               6       0                               0D    138
     126     179                                                00010000D    139
     126       0               7       0                               0D    140
     126     186                                                00010000D    141
     126       0               3       0                               0D    142
     126     189                                                00010000D    143
     126       0               7       0                               0D    144
     126     196                                                00010000D    145
     126       0               3       0                               0D    146
     126     199                                                00010000D    147
     126       0               5       0                               0D    148
     126     204                                                00010000D    149
     126       0               5       0                               0D    150
     126     209                                                00010000D    151
     126       0               3       0                               0D    152
     126     212                                                00010000D    153
     126       0               8       0                               0D    154
     126     220                                                00010000D    155
     126       0               8       0                               0D    156
     126     228                                                00010000D    157
     126       0               3       0                               0D    158
     126     231                                                00010000D    159
     126       0               6       0                               0D    160
     126     237                                                00010000D    161
     126       0               6       0                               0D    162
     126     243                                                00010000D    163
     126       0               9       0                               0D    164
     126     252                                                00010000D    165
     126       0               2       0                               0D    166
     126     254                                                00010000D    167
     126       0               9       0                               0D    168
     128     263                                                00010000D    169
     128       0    -215      13       0                               0D    170
     128     276                                                00010000D    171
     128       0    -215       9       0                               0D    172
     128     285                                                00010000D    173
     128       0    -215      13       0                               0D    174
     128     298                                                00010000D    175
     128       0    -215       9       0                               0D    176
     128     307                                                00010000D    177
     128       0    -215      13       0                               0D    178
     128     320                                                00010000D    179
     128       0    -215       9       0                               0D    180
     128     329                                                00010000D    181
     128       0    -215      13       0                               0D    182
     128     342                                                00010000D    183
     128       0    -215       9       0                               0D    184
     128     351                                                00010000D    185
     128       0    -215      13       0                               0D    186
     128     364                                                00010000D    187
     128       0    -215       8       0                               0D    188
     128     372                                                00010000D    189
     128       0    -215      13       0                               0D    190
     128     385                                                00010000D    191
     128       0    -215       9       0                               0D    192
     128     394                                                00010000D    193
     128       0    -215       7       0                               0D    194
     128     401                                                00010000D    195
     128       0    -215       7       0                               0D    196
     128     408                                                00010000D    197
     128       0    -215       3       0                               0D    198
     128     411                                                00010000D    199
     128       0    -215      12       0                               0D    200
     128     423                                                00010000D    201
     128       0    -215       7       0                               0D    202
     128     430                                                00010000D    203
     128       0    -215       6       0                               0D    204
     502     436                                                00010000D    205
     502                      17       1                               0D    206
     504     453                                                00010001D    207
     504                      11       1                               0D    208
     406     464                                                00000000D    209
     406                       1      15                               0D    210
     406     465                                                00000000D    211
     406                       1      15                               0D    212
     406     466                                                00000000D    213
     406                       1      15                               0D    214
     314     467                                                00000200D    215
     314                       2       0                               0D    216
408,5,0.,0.,0.,1.,0,1,211;                                             1P      1
408,7,0.,0.,0.,1.,0,1,213;                                             3P      2
308,0,10HComponent2,1,9;                                               5P      3
308,1,7Hbed_top,1,1;                                                   7P      4
186,11,1,0,0,1,209;                                                    9P      5
514,18,13,1,15,1,17,1,19,1,21,1,23,1,25,1,27,1,29,1,31,1,33,1,        11P      6
35,1,37,1,39,1,41,1,43,1,45,1,47,1;                                   11P      7
510,169,1,1,49;                                                       13P      8
510,171,1,1,51;                                                       15P      9
510,173,1,1,53;                                                       17P     10
510,175,1,1,55;                                                       19P     11
510,177,1,1,57;                                                       21P     12
510,179,1,1,59;                                                       23P     13
510,181,1,1,61;                                                       25P     14
510,183,1,1,63;                                                       27P     15
510,185,1,1,65;                                                       29P     16
510,187,1,1,67;                                                       31P     17
510,189,1,1,69;                                                       33P     18
510,191,1,1,71;                                                       35P     19
510,193,1,1,73;                                                       37P     20
510,195,1,1,75;                                                       39P     21
510,197,4,1,77,79,81,83;                                              41P     22
510,199,1,1,85;                                                       43P     23
510,201,1,1,87;                                                       45P     24
510,203,1,1,89;                                                       47P     25
508,4,0,207,1,1,0,0,207,2,0,0,0,207,3,0,0,0,207,4,1,0;                49P     26
508,4,0,207,5,1,0,0,207,4,0,0,0,207,6,0,0,0,207,7,1,0;                51P     27
508,4,0,207,8,1,0,0,207,7,0,0,0,207,9,0,0,0,207,10,1,0;               53P     28
508,4,0,207,11,1,0,0,207,10,0,0,0,207,12,0,0,0,207,2,1,0;             55P     29
508,4,0,207,13,1,0,0,207,14,0,0,0,207,15,0,0,0,207,16,1,0;            57P     30
508,4,0,207,17,1,0,0,207,16,0,0,0,207,18,0,0,0,207,19,1,0;            59P     31
508,4,0,207,20,1,0,0,207,19,0,0,0,207,21,0,0,0,207,22,1,0;            61P     32
508,4,0,207,23,1,0,0,207,22,0,0,0,207,24,0,0,0,207,14,1,0;            63P     33
508,4,0,207,25,1,0,0,207,26,0,0,0,207,27,0,0,0,207,28,1,0;            65P     34
508,4,0,207,29,1,0,0,207,28,0,0,0,207,30,0,0,0,207,31,1,0;            67P     35
508,4,0,207,32,1,0,0,207,31,0,0,0,207,33,0,0,0,207,34,1,0;            69P     36
508,4,0,207,35,1,0,0,207,34,0,0,0,207,36,0,0,0,207,26,1,0;            71P     37
508,4,0,207,3,1,0,0,207,12,1,0,0,207,9,1,0,0,207,6,1,0;               73P     38
508,4,0,207,27,1,0,0,207,36,1,0,0,207,33,1,0,0,207,30,1,0;            75P     39
508,1,0,207,37,1,0;                                                   77P     40
508,4,0,207,5,0,0,0,207,8,0,0,0,207,11,0,0,0,207,1,0,0;               79P     41
508,4,0,207,17,0,0,0,207,20,0,0,0,207,23,0,0,0,207,13,0,0;            81P     42
508,4,0,207,29,0,0,0,207,32,0,0,0,207,35,0,0,0,207,25,0,0;            83P     43
508,4,0,207,37,0,0,0,207,38,1,0,0,207,39,1,0,0,207,38,0,0;            85P     44
508,4,0,207,15,1,0,0,207,24,1,0,0,207,21,1,0,0,207,18,1,0;            87P     45
508,1,0,207,39,0,0;                                                   89P     46
126,4,2,0,0,0,0,-1.85490592219068D-16,-1.85490592219068D-16,          91P     47
-1.85490592219068D-16,1.57079243109583,1.57079243109583,              91P     48
3.14158486219167,3.14158486219167,3.14158486219167,1.,                91P     49
0.70710815852282,1.,0.707108158522817,1.,46.4605786960921,            91P     50
-38.9850885241763,2.,44.3072685889944,-41.5513441903195,2.,           91P     51
46.87351586647,-43.7046642947607,2.,49.4397631439455,                 91P     52
-45.8579843992018,2.,51.5930932456974,-43.2917455104329,2.,           91P     53
-1.85490592219068D-16,3.14158486219167,0.,0.,0.;                      91P     54
126,1,1,0,0,1,0,0.,0.,0.3,0.3,1.,1.,51.5930932456974,                 93P     55
-43.2917455104329,5.,51.5930932456974,-43.2917455104329,2.,0.,        93P     56
0.3,0.,0.,0.;                                                         93P     57
126,4,2,0,0,0,0,-1.85490592219068D-16,-1.85490592219068D-16,          95P     58
-1.85490592219068D-16,1.57079243109583,1.57079243109583,              95P     59
3.14158486219167,3.14158486219167,3.14158486219167,1.,                95P     60
0.70710815852282,1.,0.707108158522817,1.,46.4605786960921,            95P     61
-38.9850885241763,5.,44.3072685889944,-41.5513441903195,5.,           95P     62
46.87351586647,-43.7046642947607,5.,49.4397631439455,                 95P     63
-45.8579843992018,5.,51.5930932456974,-43.2917455104329,5.,           95P     64
-1.85490592219068D-16,3.14158486219167,0.,0.,0.;                      95P     65
126,1,1,0,0,1,0,0.,0.,0.3,0.3,1.,1.,46.4605786960921,                 97P     66
-38.9850885241763,5.,46.4605786960921,-38.9850885241763,2.,0.,        97P     67
0.3,0.,0.,0.;                                                         97P     68
126,2,2,0,0,0,0,-0.349066280801207,-0.349066280801207,                99P     69
-0.349066280801207,0.,0.,0.,1.,0.984807715642888,1.,                  99P     70
56.992357450829,-20.7435216925808,2.,53.3347102986933,                99P     71
-30.7928246514937,2.,46.4605786960921,-38.9850885241763,2.,           99P     72
-0.349066280801207,0.,0.,0.,0.;                                       99P     73
126,2,2,0,0,0,0,-0.349066280801207,-0.349066280801207,               101P     74
-0.349066280801207,0.,0.,0.,1.,0.984807715642888,1.,                 101P     75
56.992357450829,-20.7435216925808,5.,53.3347102986933,               101P     76
-30.7928246514937,5.,46.4605786960921,-38.9850885241763,5.,          101P     77
-0.349066280801207,0.,0.,0.,0.;                                      101P     78
126,1,1,0,0,1,0,0.,0.,0.3,0.3,1.,1.,56.9923574507234,                103P     79
-20.7435216925423,5.,56.9923574507234,-20.7435216925423,2.,0.,       103P     80
0.3,0.,0.,0.;                                                        103P     81
126,4,2,0,0,0,0,-1.36026434293568D-15,-1.36026434293568D-15,         105P     82
-1.36026434293568D-15,1.5707963267949,1.5707963267949,               105P     83
3.14159265358979,3.14159265358979,3.14159265358979,1.,               105P     84
0.707106781186544,1.,0.707106781186547,1.,63.2882980098729,          105P     85
-23.0350566531433,2.,64.4340654901734,-19.8870863735686,2.,          105P     86
61.2860952105986,-18.7413188932681,2.,58.1381249310239,              105P     87
-17.5955514129676,2.,56.9923574507234,-20.7435216925423,2.,          105P     88
-1.36026434293568D-15,3.14159265358979,0.,0.,0.;                     105P     89
126,4,2,0,0,0,0,-1.36026434293568D-15,-1.36026434293568D-15,         107P     90
-1.36026434293568D-15,1.5707963267949,1.5707963267949,               107P     91
3.14159265358979,3.14159265358979,3.14159265358979,1.,               107P     92
0.707106781186544,1.,0.707106781186547,1.,63.2882980098729,          107P     93
-23.0350566531433,5.,64.4340654901734,-19.8870863735686,5.,          107P     94
61.2860952105986,-18.7413188932681,5.,58.1381249310239,              107P     95
-17.5955514129676,5.,56.9923574507234,-20.7435216925423,5.,          107P     96
-1.36026434293568D-15,3.14159265358979,0.,0.,0.;                     107P     97
126,1,1,0,0,1,0,0.,0.,0.3,0.3,1.,1.,63.2882980098729,                109P     98
-23.0350566531433,5.,63.2882980098729,-23.0350566531433,2.,0.,       109P     99
0.3,0.,0.,0.;                                                        109P    100
126,2,2,0,0,0,0,6.10286765226927D-13,6.10286765226927D-13,           111P    101
6.10286765226927D-13,0.349065850359115,0.349065850359115,            111P    102
0.349065850359115,1.,0.984807753015727,1.,51.5930932457014,          111P    103
-43.2917455104362,2.,59.226596020255,-34.1944911540849,2.,           111P    104
63.2882980098729,-23.0350566531433,2.,6.10286765226927D-13,          111P    105
0.349065850359115,0.,0.,0.;                                          111P    106
126,2,2,0,0,0,0,6.10286765226927D-13,6.10286765226927D-13,           113P    107
6.10286765226927D-13,0.349065850359115,0.349065850359115,            113P    108
0.349065850359115,1.,0.984807753015727,1.,51.5930932457014,          113P    109
-43.2917455104362,5.,59.226596020255,-34.1944911540849,5.,           113P    110
63.2882980098729,-23.0350566531433,5.,6.10286765226927D-13,          113P    111
0.349065850359115,0.,0.,0.;                                          113P    112
126,4,2,0,0,0,0,-2.47320789625424D-16,-2.47320789625424D-16,         115P    113
-2.47320789625424D-16,1.57079243109583,1.57079243109583,             115P    114
3.14158486219167,3.14158486219167,3.14158486219167,1.,               115P    115
0.707108158522818,1.,0.70710815852282,1.,-56.992366378768,           115P    116
-20.7434971632537,2.,-58.1381539247049,-17.5955480752097,2.,         115P    117
-61.2861074763684,-18.7413233576756,2.,-64.434061028032,             115P    118
-19.8870986401415,2.,-63.2882980090545,-23.0350566553769,2.,         115P    119
-2.47320789625424D-16,3.14158486219167,0.,0.,0.;                     115P    120
126,1,1,0,0,1,0,0.,0.,0.3,0.3,1.,1.,-63.2882980090545,               117P    121
-23.0350566553769,5.,-63.2882980090545,-23.0350566553769,2.,0.,      117P    122
0.3,0.,0.,0.;                                                        117P    123
126,4,2,0,0,0,0,-2.47320789625424D-16,-2.47320789625424D-16,         119P    124
-2.47320789625424D-16,1.57079243109583,1.57079243109583,             119P    125
3.14158486219167,3.14158486219167,3.14158486219167,1.,               119P    126
0.707108158522818,1.,0.70710815852282,1.,-56.992366378768,           119P    127
-20.7434971632537,5.,-58.1381539247049,-17.5955480752097,5.,         119P    128
-61.2861074763684,-18.7413233576756,5.,-64.434061028032,             119P    129
-19.8870986401415,5.,-63.2882980090545,-23.0350566553769,5.,         119P    130
-2.47320789625424D-16,3.14158486219167,0.,0.,0.;                     119P    131
126,1,1,0,0,1,0,0.,0.,0.3,0.3,1.,1.,-56.992366378768,                121P    132
-20.7434971632537,5.,-56.992366378768,-20.7434971632537,2.,0.,       121P    133
0.3,0.,0.,0.;                                                        121P    134
126,2,2,0,0,0,0,-0.349066280801207,-0.349066280801207,               123P    135
-0.349066280801207,0.,0.,0.,1.,0.984807715642899,1.,                 123P    136
-46.4605954751431,-38.9850685276909,2.,-53.3347235518199,            123P    137
-30.7928016964051,2.,-56.992366378768,-20.7434971632537,2.,          123P    138
-0.349066280801207,0.,0.,0.,0.;                                      123P    139
126,2,2,0,0,0,0,-0.349066280801207,-0.349066280801207,               125P    140
-0.349066280801207,0.,0.,0.,1.,0.984807715642899,1.,                 125P    141
-46.4605954751431,-38.9850685276909,5.,-53.3347235518199,            125P    142
-30.7928016964051,5.,-56.992366378768,-20.7434971632537,5.,          125P    143
-0.349066280801207,0.,0.,0.,0.;                                      125P    144
126,1,1,0,0,1,0,0.,0.,0.3,0.3,1.,1.,-46.4605954750569,               127P    145
-38.9850685276186,5.,-46.4605954750569,-38.9850685276186,2.,0.,      127P    146
0.3,0.,0.,0.;                                                        127P    147
126,4,2,0,0,0,0,-1.79307572477885D-15,-1.79307572477885D-15,         129P    148
-1.79307572477885D-15,1.5707963267949,1.5707963267949,               129P    149
3.14159265358979,3.14159265358979,3.14159265358979,1.,               129P    150
0.70710678118654,1.,0.707106781186553,1.,-51.5930932441723,          129P    151
-43.2917455122584,2.,-49.4397547518524,-45.8579943968161,2.,         129P    152
-46.8735058672947,-43.7046559044962,2.,-44.307256982737,             129P    153
-41.5513174121763,2.,-46.4605954750569,-38.9850685276186,2.,         129P    154
-1.79307572477885D-15,3.14159265358979,0.,0.,0.;                     129P    155
126,4,2,0,0,0,0,-1.79307572477885D-15,-1.79307572477885D-15,         131P    156
-1.79307572477885D-15,1.5707963267949,1.5707963267949,               131P    157
3.14159265358979,3.14159265358979,3.14159265358979,1.,               131P    158
0.70710678118654,1.,0.707106781186553,1.,-51.5930932441723,          131P    159
-43.2917455122584,5.,-49.4397547518524,-45.8579943968161,5.,         131P    160
-46.8735058672947,-43.7046559044962,5.,-44.307256982737,             131P    161
-41.5513174121763,5.,-46.4605954750569,-38.9850685276186,5.,         131P    162
-1.79307572477885D-15,3.14159265358979,0.,0.,0.;                     131P    163
126,1,1,0,0,1,0,0.,0.,0.3,0.3,1.,1.,-51.5930932441723,               133P    164
-43.2917455122584,5.,-51.5930932441723,-43.2917455122584,2.,0.,      133P    165
0.3,0.,0.,0.;                                                        133P    166
126,2,2,0,0,0,0,6.10325926338659D-13,6.10325926338659D-13,           135P    167
6.10325926338659D-13,0.349065850359115,0.349065850359115,            135P    168
0.349065850359115,1.,0.984807753015714,1.,-63.2882980090593,         135P    169
-23.0350566553787,2.,-59.2265960190473,-34.1944911561767,2.,         135P    170
-51.5930932441723,-43.2917455122584,2.,6.10325926338659D-13,         135P    171
0.349065850359115,0.,0.,0.;                                          135P    172
126,2,2,0,0,0,0,6.10325926338659D-13,6.10325926338659D-13,           137P    173
6.10325926338659D-13,0.349065850359115,0.349065850359115,            137P    174
0.349065850359115,1.,0.984807753015714,1.,-63.2882980090593,         137P    175
-23.0350566553787,5.,-59.2265960190473,-34.1944911561767,5.,         137P    176
-51.5930932441723,-43.2917455122584,5.,6.10325926338659D-13,         137P    177
0.349065850359115,0.,0.,0.;                                          137P    178
126,4,2,0,0,0,0,0.,0.,0.,1.57079243109583,1.57079243109583,          139P    179
3.14158486219167,3.14158486219167,3.14158486219167,1.,               139P    180
0.707108158522815,1.,0.707108158522812,1.,10.5317876826758,          139P    181
59.7285856874301,2.,13.8308853357104,59.1468922655293,2.,            139P    182
14.4125916098984,62.4459876524363,2.,14.9942978840865,               139P    183
65.7450830393434,2.,11.695204763357,66.3268021658098,2.,0.,          139P    184
3.14158486219167,0.,0.,0.;                                           139P    185
126,1,1,0,0,1,0,0.,0.,0.3,0.3,1.,1.,11.695204763357,                 141P    186
66.3268021658098,5.,11.695204763357,66.3268021658098,2.,0.,0.3,      141P    187
0.,0.,0.;                                                            141P    188
126,4,2,0,0,0,0,0.,0.,0.,1.57079243109583,1.57079243109583,          143P    189
3.14158486219167,3.14158486219167,3.14158486219167,1.,               143P    190
0.707108158522815,1.,0.707108158522812,1.,10.5317876826758,          143P    191
59.7285856874301,5.,13.8308853357104,59.1468922655293,5.,            143P    192
14.4125916098984,62.4459876524363,5.,14.9942978840865,               143P    193
65.7450830393434,5.,11.695204763357,66.3268021658098,5.,0.,          143P    194
3.14158486219167,0.,0.,0.;                                           143P    195
126,1,1,0,0,1,0,0.,0.,0.3,0.3,1.,1.,10.5317876826758,                145P    196
59.7285856874301,5.,10.5317876826758,59.7285856874301,2.,0.,0.3,     145P    197
0.,0.,0.;                                                            145P    198
126,2,2,0,0,0,0,-0.349066280801207,-0.349066280801207,               147P    199
-0.349066280801207,0.,0.,0.,1.,0.984807715642902,1.,                 147P    200
-10.531761975686,59.7285902202717,2.,1.32531265162328D-5,            147P    201
61.5856263478988,2.,10.5317876826758,59.7285856874301,2.,            147P    202
-0.349066280801207,0.,0.,0.,0.;                                      147P    203
126,2,2,0,0,0,0,-0.349066280801207,-0.349066280801207,               149P    204
-0.349066280801207,0.,0.,0.,1.,0.984807715642902,1.,                 149P    205
-10.531761975686,59.7285902202717,5.,1.32531265162328D-5,            149P    206
61.5856263478988,5.,10.5317876826758,59.7285856874301,5.,            149P    207
-0.349066280801207,0.,0.,0.,0.;                                      149P    208
126,1,1,0,0,1,0,0.,0.,0.3,0.3,1.,1.,-10.5317619756665,               151P    209
59.7285902201609,5.,-10.5317619756665,59.7285902201609,2.,0.,        151P    210
0.3,0.,0.,0.;                                                        151P    211
126,4,2,0,0,0,0,-4.63726480546255D-16,-4.63726480546255D-16,         153P    212
-4.63726480546255D-16,1.5707963267949,1.5707963267949,               153P    213
3.14159265358979,3.14159265358979,3.14159265358979,1.,               153P    214
0.707106781186544,1.,0.707106781186551,1.,-11.6952047657006,         153P    215
66.3268021654017,2.,-14.994310738321,65.7450807703846,2.,            153P    216
-14.4125893433039,62.4459747977643,2.,-13.8308679482869,             153P    217
59.1468688251439,2.,-10.5317619756665,59.7285902201609,2.,           153P    218
-4.63726480546255D-16,3.14159265358979,0.,0.,0.;                     153P    219
126,4,2,0,0,0,0,-4.63726480546255D-16,-4.63726480546255D-16,         155P    220
-4.63726480546255D-16,1.5707963267949,1.5707963267949,               155P    221
3.14159265358979,3.14159265358979,3.14159265358979,1.,               155P    222
0.707106781186544,1.,0.707106781186551,1.,-11.6952047657006,         155P    223
66.3268021654017,5.,-14.994310738321,65.7450807703846,5.,            155P    224
-14.4125893433039,62.4459747977643,5.,-13.8308679482869,             155P    225
59.1468688251439,5.,-10.5317619756665,59.7285902201609,5.,           155P    226
-4.63726480546255D-16,3.14159265358979,0.,0.,0.;                     155P    227
126,1,1,0,0,1,0,0.,0.,0.3,0.3,1.,1.,-11.6952047657006,               157P    228
66.3268021654017,5.,-11.6952047657006,66.3268021654017,2.,0.,        157P    229
0.3,0.,0.,0.;                                                        157P    230
126,2,2,0,0,0,0,6.10306345782793D-13,6.10306345782793D-13,           159P    231
6.10306345782793D-13,0.349065850359115,0.349065850359115,            159P    232
0.349065850359115,1.,0.984807753015714,1.,11.6952047633579,          159P    233
66.3268021658148,2.,-1.20775833778453D-9,68.3889823102616,2.,        159P    234
-11.6952047657006,66.3268021654017,2.,6.10306345782793D-13,          159P    235
0.349065850359115,0.,0.,0.;                                          159P    236
126,2,2,0,0,0,0,6.10306345782793D-13,6.10306345782793D-13,           161P    237
6.10306345782793D-13,0.349065850359115,0.349065850359115,            161P    238
0.349065850359115,1.,0.984807753015714,1.,11.6952047633579,          161P    239
66.3268021658148,5.,-1.20775833778453D-9,68.3889823102616,5.,        161P    240
-11.6952047657006,66.3268021654017,5.,6.10306345782793D-13,          161P    241
0.349065850359115,0.,0.,0.;                                          161P    242
126,8,2,0,1,0,0,-3.14159265358979,-3.14159265358979,                 163P    243
-3.14159265358979,-1.5707963267949,-1.5707963267949,0.,0.,           163P    244
1.5707963267949,1.5707963267949,3.14159265358979,                    163P    245
3.14159265358979,3.14159265358979,1.,0.707106781186548,1.,           163P    246
0.707106781186548,1.,0.707106781186548,1.,0.707106781186548,1.,      163P    247
-90.,-1.10218211923262D-14,2.,-90.,-90.,2.,5.51091059616309D-15,     163P    248
-90.,2.,90.,-90.,2.,90.,0.,2.,90.,90.,2.,5.51091059616309D-15,       163P    249
90.,2.,-90.,90.,2.,-90.,1.10218211923262D-14,2.,                     163P    250
-3.14159265358979,3.14159265358979,0.,0.,0.;                         163P    251
126,1,1,0,0,1,0,-0.0222222222222222,-0.0222222222222222,0.,0.,       165P    252
1.,1.,-90.,0.,2.,-90.,0.,0.,-0.0222222222222222,0.,0.,0.,0.;         165P    253
126,8,2,0,1,0,0,-3.14159265358979,-3.14159265358979,                 167P    254
-3.14159265358979,-1.5707963267949,-1.5707963267949,0.,0.,           167P    255
1.5707963267949,1.5707963267949,3.14159265358979,                    167P    256
3.14159265358979,3.14159265358979,1.,0.707106781186548,1.,           167P    257
0.707106781186548,1.,0.707106781186548,1.,0.707106781186548,1.,      167P    258
-90.,-1.10218211923262D-14,0.,-90.,-90.,0.,5.51091059616309D-15,     167P    259
-90.,0.,90.,-90.,0.,90.,0.,0.,90.,90.,0.,5.51091059616309D-15,       167P    260
90.,0.,-90.,90.,0.,-90.,1.10218211923262D-14,0.,                     167P    261
-3.14159265358979,3.14159265358979,0.,0.,0.;                         167P    262
128,1,4,1,2,0,0,0,0,0,0.,0.,0.895522388061061,0.895522388061061,     169P    263
-3.14158486219167,-3.14158486219167,-3.14158486219167,               169P    264
-1.57079243109583,-1.57079243109583,2.48557393573174D-16,            169P    265
2.48557393573174D-16,2.48557393573174D-16,1.,1.,                     169P    266
0.707108158522819,0.707108158522819,1.,1.,0.707108158522819,         169P    267
0.707108158522819,1.,1.,51.5930932456974,-43.2917455104329,2.,       169P    268
51.5930932456974,-43.2917455104329,5.,49.4397631439455,              169P    269
-45.8579843992018,2.,49.4397631439455,-45.8579843992018,5.,          169P    270
46.87351586647,-43.7046642947607,2.,46.87351586647,                  169P    271
-43.7046642947607,5.,44.3072685889944,-41.5513441903195,2.,          169P    272
44.3072685889944,-41.5513441903195,5.,46.4605786960921,              169P    273
-38.9850885241763,2.,46.4605786960921,-38.9850885241763,5.,0.,       169P    274
0.895522388061061,-3.14158486219167,2.48557393573174D-16;            169P    275
128,1,2,1,2,0,0,0,0,0,0.,0.,0.0494641384994961,                      171P    276
0.0494641384994961,-0.349066280801207,-0.349066280801207,            171P    277
-0.349066280801207,0.,0.,0.,1.,1.,0.984807715642894,                 171P    278
0.984807715642894,1.,1.,56.992357450829,-20.7435216925808,5.,        171P    279
56.992357450829,-20.7435216925808,2.,53.3347102986933,               171P    280
-30.7928246514937,5.,53.3347102986933,-30.7928246514937,2.,          171P    281
46.4605786960921,-38.9850885241763,5.,46.4605786960921,              171P    282
-38.9850885241763,2.,0.,0.0494641384994961,-0.349066280801207,       171P    283
0.;                                                                  171P    284
128,1,4,1,2,0,0,0,0,0,0.,0.,0.895522388059697,0.895522388059697,     173P    285
-3.14159265358979,-3.14159265358979,-3.14159265358979,               173P    286
-1.5707963267949,-1.5707963267949,1.36706566465037D-15,              173P    287
1.36706566465037D-15,1.36706566465037D-15,1.,1.,                     173P    288
0.707106781186547,0.707106781186547,1.,1.,0.707106781186547,         173P    289
0.707106781186547,1.,1.,56.9923574507234,-20.7435216925423,2.,       173P    290
56.9923574507234,-20.7435216925423,5.,58.1381249310239,              173P    291
-17.5955514129676,2.,58.1381249310239,-17.5955514129676,5.,          173P    292
61.2860952105986,-18.7413188932681,2.,61.2860952105986,              173P    293
-18.7413188932681,5.,64.4340654901734,-19.8870863735686,2.,          173P    294
64.4340654901734,-19.8870863735686,5.,63.2882980098729,              173P    295
-23.0350566531433,2.,63.2882980098729,-23.0350566531433,5.,0.,       173P    296
0.895522388059697,-3.14159265358979,1.36706566465037D-15;            173P    297
128,1,2,1,2,0,0,0,0,0,0.,0.,0.044543429844098,0.044543429844098,     175P    298
-0.349065850359115,-0.349065850359115,-0.349065850359115,            175P    299
-6.10185827461439D-13,-6.10185827461439D-13,                         175P    300
-6.10185827461439D-13,1.,1.,0.984807753015712,0.984807753015712,     175P    301
1.,1.,63.2882980098729,-23.0350566531433,2.,63.2882980098729,        175P    302
-23.0350566531433,5.,59.2265960202446,-34.194491154103,2.,           175P    303
59.2265960202446,-34.194491154103,5.,51.5930932456749,               175P    304
-43.2917455104676,2.,51.5930932456749,-43.2917455104676,5.,0.,       175P    305
0.044543429844098,-0.349065850359115,-6.10185827461439D-13;          175P    306
128,1,4,1,2,0,0,0,0,0,0.,0.,0.895522388061061,0.895522388061061,     177P    307
-3.14158486219167,-3.14158486219167,-3.14158486219167,               177P    308
-1.57079243109583,-1.57079243109583,2.48557393573174D-16,            177P    309
2.48557393573174D-16,2.48557393573174D-16,1.,1.,                     177P    310
0.707108158522818,0.707108158522818,1.,1.,0.707108158522818,         177P    311
0.707108158522818,1.,1.,-63.2882980090545,-23.0350566553769,2.,      177P    312
-63.2882980090545,-23.0350566553769,5.,-64.434061028032,             177P    313
-19.8870986401415,2.,-64.434061028032,-19.8870986401415,5.,          177P    314
-61.2861074763684,-18.7413233576756,2.,-61.2861074763684,            177P    315
-18.7413233576756,5.,-58.1381539247049,-17.5955480752097,2.,         177P    316
-58.1381539247049,-17.5955480752097,5.,-56.992366378768,             177P    317
-20.7434971632537,2.,-56.992366378768,-20.7434971632537,5.,0.,       177P    318
0.895522388061061,-3.14158486219167,2.48557393573174D-16;            177P    319
128,1,2,1,2,0,0,0,0,0,0.,0.,0.0494641384994961,                      179P    320
0.0494641384994961,-0.349066280801207,-0.349066280801207,            179P    321
-0.349066280801207,0.,0.,0.,1.,1.,0.984807715642894,                 179P    322
0.984807715642894,1.,1.,-46.4605954751431,-38.9850685276909,5.,      179P    323
-46.4605954751431,-38.9850685276909,2.,-53.3347235518199,            179P    324
-30.7928016964051,5.,-53.3347235518199,-30.7928016964051,2.,         179P    325
-56.992366378768,-20.7434971632537,5.,-56.992366378768,              179P    326
-20.7434971632537,2.,0.,0.0494641384994961,-0.349066280801207,       179P    327
0.;                                                                  179P    328
128,1,4,1,2,0,0,0,0,0,0.,0.,0.895522388059697,0.895522388059697,     181P    329
-3.14159265358979,-3.14159265358979,-3.14159265358979,               181P    330
-1.5707963267949,-1.5707963267949,2.15416407763089D-15,              181P    331
2.15416407763089D-15,2.15416407763089D-15,1.,1.,                     181P    332
0.707106781186547,0.707106781186547,1.,1.,0.707106781186547,         181P    333
0.707106781186547,1.,1.,-46.4605954750569,-38.9850685276186,2.,      181P    334
-46.4605954750569,-38.9850685276186,5.,-44.307256982737,             181P    335
-41.5513174121763,2.,-44.307256982737,-41.5513174121763,5.,          181P    336
-46.8735058672947,-43.7046559044962,2.,-46.8735058672947,            181P    337
-43.7046559044962,5.,-49.4397547518524,-45.8579943968161,2.,         181P    338
-49.4397547518524,-45.8579943968161,5.,-51.5930932441723,            181P    339
-43.2917455122584,2.,-51.5930932441723,-43.2917455122584,5.,0.,      181P    340
0.895522388059697,-3.14159265358979,2.15416407763089D-15;            181P    341
128,1,2,1,2,0,0,0,0,0,0.,0.,0.044543429844098,0.044543429844098,     183P    342
-0.349065850359115,-0.349065850359115,-0.349065850359115,            183P    343
-6.10317702505149D-13,-6.10317702505149D-13,                         183P    344
-6.10317702505149D-13,1.,1.,0.984807753015712,0.984807753015712,     183P    345
1.,1.,-51.5930932441723,-43.2917455122584,2.,-51.5930932441723,      183P    346
-43.2917455122584,5.,-59.2265960190577,-34.1944911561587,2.,         183P    347
-59.2265960190577,-34.1944911561587,5.,-63.2882980090734,            183P    348
-23.03505665534,2.,-63.2882980090734,-23.03505665534,5.,0.,          183P    349
0.044543429844098,-0.349065850359115,-6.10317702505149D-13;          183P    350
128,1,4,1,2,0,0,0,0,0,0.,0.,0.895522388061061,0.895522388061061,     185P    351
-3.14158486219167,-3.14158486219167,-3.14158486219167,               185P    352
-1.57079243109583,-1.57079243109583,2.07131161310978D-17,            185P    353
2.07131161310978D-17,2.07131161310978D-17,1.,1.,                     185P    354
0.707108158522819,0.707108158522819,1.,1.,0.707108158522819,         185P    355
0.707108158522819,1.,1.,11.695204763357,66.3268021658098,2.,         185P    356
11.695204763357,66.3268021658098,5.,14.9942978840865,                185P    357
65.7450830393434,2.,14.9942978840865,65.7450830393434,5.,            185P    358
14.4125916098984,62.4459876524363,2.,14.4125916098984,               185P    359
62.4459876524363,5.,13.8308853357104,59.1468922655293,2.,            185P    360
13.8308853357104,59.1468922655293,5.,10.5317876826758,               185P    361
59.7285856874301,2.,10.5317876826758,59.7285856874301,5.,0.,         185P    362
0.895522388061061,-3.14158486219167,2.07131161310978D-17;            185P    363
128,1,2,1,2,0,0,0,0,0,0.,0.,0.0494641384994961,                      187P    364
0.0494641384994961,-0.349066280801207,-0.349066280801207,            187P    365
-0.349066280801207,0.,0.,0.,1.,1.,0.984807715642894,                 187P    366
0.984807715642894,1.,1.,-10.531761975686,59.7285902202717,5.,        187P    367
-10.531761975686,59.7285902202717,2.,1.32531265450986D-5,            187P    368
61.5856263478988,5.,1.32531265450986D-5,61.5856263478988,2.,         187P    369
10.5317876826758,59.7285856874301,5.,10.5317876826758,               187P    370
59.7285856874301,2.,0.,0.0494641384994961,-0.349066280801207,0.;     187P    371
128,1,4,1,2,0,0,0,0,0,0.,0.,0.895522388059697,0.895522388059697,     189P    372
-3.14159265358979,-3.14159265358979,-3.14159265358979,               189P    373
-1.5707963267949,-1.5707963267949,6.83532832325186D-16,              189P    374
6.83532832325186D-16,6.83532832325186D-16,1.,1.,                     189P    375
0.707106781186547,0.707106781186547,1.,1.,0.707106781186547,         189P    376
0.707106781186547,1.,1.,-10.5317619756665,59.7285902201609,2.,       189P    377
-10.5317619756665,59.7285902201609,5.,-13.8308679482869,             189P    378
59.1468688251439,2.,-13.8308679482869,59.1468688251439,5.,           189P    379
-14.4125893433039,62.4459747977643,2.,-14.4125893433039,             189P    380
62.4459747977643,5.,-14.994310738321,65.7450807703846,2.,            189P    381
-14.994310738321,65.7450807703846,5.,-11.6952047657006,              189P    382
66.3268021654017,2.,-11.6952047657006,66.3268021654017,5.,0.,        189P    383
0.895522388059697,-3.14159265358979,6.83532832325186D-16;            189P    384
128,1,2,1,2,0,0,0,0,0,0.,0.,0.044543429844098,0.044543429844098,     191P    385
-0.349065850359115,-0.349065850359115,-0.349065850359115,            191P    386
-6.10317702505149D-13,-6.10317702505149D-13,                         191P    387
-6.10317702505149D-13,1.,1.,0.984807753015712,0.984807753015712,     191P    388
1.,1.,-11.6952047657006,66.3268021654017,2.,-11.6952047657006,       191P    389
66.3268021654017,5.,-1.18689280625972D-9,68.3889823102616,2.,        191P    390
-1.18689280625972D-9,68.3889823102616,5.,11.6952047633984,           191P    391
66.3268021658076,2.,11.6952047633984,66.3268021658076,5.,0.,         191P    392
0.044543429844098,-0.349065850359115,-6.10317702505149D-13;          191P    393
128,1,1,1,1,0,0,1,0,0,-1.02863174559619,-1.02863174559619,           193P    394
0.986047944521701,0.986047944521701,-1.43541363028111,               193P    395
-1.43541363028111,1.39282966834231,1.39282966834231,1.,1.,1.,1.,     193P    396
44.2972685889944,-45.8679843992018,5.,64.4440654901734,              193P    397
-45.8679843992018,5.,44.2972685889944,-17.5855514129676,5.,          193P    398
64.4440654901734,-17.5855514129676,5.,-1.02863174559619,             193P    399
0.986047944521701,-1.43541363028111,1.39282966834231;                193P    400
128,1,1,1,1,0,0,1,0,0,-1.5004310738321,-1.5004310738321,             195P    401
1.50042978840865,1.50042978840865,-0.437697927124681,                195P    402
-0.437697927124681,0.488513421387093,0.488513421387093,1.,1.,1.,     195P    403
1.,-15.004310738321,59.1368688251439,5.,15.0042978840865,            195P    404
59.1368688251439,5.,-15.004310738321,68.3989823102616,5.,            195P    405
15.0042978840865,68.3989823102616,5.,-1.5004310738321,               195P    406
1.50042978840865,-0.437697927124681,0.488513421387093;               195P    407
128,1,1,1,1,0,0,1,0,0,-9.001,-9.001,9.001,9.001,-9.001,-9.001,       197P    408
9.001,9.001,1.,1.,1.,1.,-90.01,-90.01,2.,90.01,-90.01,2.,-90.01,     197P    409
90.01,2.,90.01,90.01,2.,-9.001,9.001,-9.001,9.001;                   197P    410
128,1,8,1,2,0,1,0,0,1,0.,0.,0.0222222222222222,                      199P    411
0.0222222222222222,-3.14159265358979,-3.14159265358979,              199P    412
-3.14159265358979,-1.5707963267949,-1.5707963267949,0.,0.,           199P    413
1.5707963267949,1.5707963267949,3.14159265358979,                    199P    414
3.14159265358979,3.14159265358979,1.,1.,0.707106781186548,           199P    415
0.707106781186548,1.,1.,0.707106781186548,0.707106781186548,1.,      199P    416
1.,0.707106781186548,0.707106781186548,1.,1.,0.707106781186548,      199P    417
0.707106781186548,1.,1.,-90.,0.,2.,-90.,0.,0.,-90.,-90.,2.,-90.,     199P    418
-90.,0.,0.,-90.,2.,0.,-90.,0.,90.,-90.,2.,90.,-90.,0.,90.,0.,2.,     199P    419
90.,0.,0.,90.,90.,2.,90.,90.,0.,0.,90.,2.,0.,90.,0.,-90.,90.,2.,     199P    420
-90.,90.,0.,-90.,0.,2.,-90.,0.,0.,0.,0.0222222222222222,             199P    421
-3.14159265358979,3.14159265358979;                                  199P    422
128,1,1,1,1,0,0,1,0,0,-0.986047498307564,-0.986047498307564,         201P    423
1.02863290622194,1.02863290622194,-1.43541463004254,                 201P    424
-1.43541463004254,1.39283000211809,1.39283000211809,1.,1.,1.,1.,     201P    425
-64.444061028032,-45.8679943968161,5.,-44.297256982737,              201P    426
-45.8679943968161,5.,-64.444061028032,-17.5855480752097,5.,          201P    427
-44.297256982737,-17.5855480752097,5.,-0.986047498307564,            201P    428
1.02863290622194,-1.43541463004254,1.39283000211809;                 201P    429
128,1,1,1,1,0,0,1,0,0,-3.54264139550436,-3.54264139550436,           203P    430
14.4593586044956,14.4593586044956,-5.84961519036094,                 203P    431
-5.84961519036094,12.1523848096391,12.1523848096391,1.,1.,1.,1.,     203P    432
90.01,-90.01,0.,-90.01,-90.01,0.,90.01,90.01,0.,-90.01,90.01,0.,     203P    433
-3.54264139550436,14.4593586044956,-5.84961519036094,                203P    434
12.1523848096391;                                                    203P    435
502,26,46.4605786960921,-38.9850885241763,2.,51.5930932456974,       205P    436
-43.2917455104329,2.,51.5930932456974,-43.2917455104329,5.,          205P    437
46.4605786960921,-38.9850885241763,5.,56.9923574507234,              205P    438
-20.7435216925423,2.,56.9923574507234,-20.7435216925423,5.,          205P    439
63.2882980098729,-23.0350566531433,2.,63.2882980098729,              205P    440
-23.0350566531433,5.,-56.992366378768,-20.7434971632537,2.,          205P    441
-63.2882980090545,-23.0350566553769,2.,-63.2882980090545,            205P    442
-23.0350566553769,5.,-56.992366378768,-20.7434971632537,5.,          205P    443
-46.4605954750569,-38.9850685276186,2.,-46.4605954750569,            205P    444
-38.9850685276186,5.,-51.5930932441723,-43.2917455122584,2.,         205P    445
-51.5930932441723,-43.2917455122584,5.,10.5317876826758,             205P    446
59.7285856874301,2.,11.695204763357,66.3268021658098,2.,             205P    447
11.695204763357,66.3268021658098,5.,10.5317876826758,                205P    448
59.7285856874301,5.,-10.5317619756665,59.7285902201609,2.,           205P    449
-10.5317619756665,59.7285902201609,5.,-11.6952047657006,             205P    450
66.3268021654017,2.,-11.6952047657006,66.3268021654017,5.,-90.,      205P    451
-1.10218211923262D-14,2.,-90.,-1.10218211923262D-14,0.;              205P    452
504,39,91,205,1,205,2,93,205,3,205,2,95,205,4,205,3,97,205,4,        207P    453
205,1,99,205,5,205,1,101,205,6,205,4,103,205,6,205,5,105,205,7,      207P    454
205,5,107,205,8,205,6,109,205,8,205,7,111,205,2,205,7,113,205,3,     207P    455
205,8,115,205,9,205,10,117,205,11,205,10,119,205,12,205,11,121,      207P    456
205,12,205,9,123,205,13,205,9,125,205,14,205,12,127,205,14,205,      207P    457
13,129,205,15,205,13,131,205,16,205,14,133,205,16,205,15,135,        207P    458
205,10,205,15,137,205,11,205,16,139,205,17,205,18,141,205,19,        207P    459
205,18,143,205,20,205,19,145,205,20,205,17,147,205,21,205,17,        207P    460
149,205,22,205,20,151,205,22,205,21,153,205,23,205,21,155,205,       207P    461
24,205,22,157,205,24,205,23,159,205,18,205,23,161,205,19,205,24,     207P    462
163,205,25,205,25,165,205,25,205,26,167,205,26,205,26;               207P    463
406,1,5HBody1;                                                       209P    464
406,1,12HComponent2:1;                                               211P    465
406,1,9Hbed_top:1;                                                   213P    466
314,62.7450980392157,62.7450980392157,62.7450980392157,13HSteel      215P    467
- Satin;                                                             215P    468
S      1G      3D    216P    468                                        T      1
