                                                                        S      1
,,9Hspacer v5,9Hspacer v5,7Hunknown,7Hunknown,32,38,7,99,15,,1.,2,2HMM, G      1
1,0.08,15H20200329.203620,0.01,10000.,7Hunknown,7Hunknown,11,0,15H201911G      2
27.061744;                                                              G      3
     408       1                                                00000001D      1
     408       0               1       0                               0D      2
     308       2                                                00010200D      3
     308       0               1       0                               0D      4
     186       3                                                00010000D      5
     186            -153       1       0                               0D      6
     514       4                                                00010000D      7
     514                       1       1                               0D      8
     510       5                                                00010000D      9
     510            -153       1       1                               0D     10
     510       6                                                00010000D     11
     510            -153       1       1                               0D     12
     510       7                                                00010000D     13
     510            -153       1       1                               0D     14
     510       8                                                00010000D     15
     510            -153       1       1                               0D     16
     510       9                                                00010000D     17
     510            -153       1       1                               0D     18
     510      10                                                00010000D     19
     510            -153       1       1                               0D     20
     510      11                                                00010000D     21
     510            -153       1       1                               0D     22
     510      12                                                00010000D     23
     510            -153       1       1                               0D     24
     510      13                                                00010000D     25
     510            -153       1       1                               0D     26
     510      14                                                00010000D     27
     510            -153       1       1                               0D     28
     508      15                                                00010000D     29
     508                       1       1                               0D     30
     508      16                                                00010000D     31
     508                       1       1                               0D     32
     508      17                                                00010000D     33
     508                       1       1                               0D     34
     508      18                                                00010000D     35
     508                       1       1                               0D     36
     508      19                                                00010000D     37
     508                       1       1                               0D     38
     508      20                                                00010000D     39
     508                       1       1                               0D     40
     508      21                                                00010000D     41
     508                       1       1                               0D     42
     508      22                                                00010000D     43
     508                       1       1                               0D     44
     508      23                                                00010000D     45
     508                       1       1                               0D     46
     508      24                                                00010000D     47
     508                       1       1                               0D     48
     508      25                                                00010000D     49
     508                       1       1                               0D     50
     508      26                                                00010000D     51
     508                       1       1                               0D     52
     508      27                                                00010000D     53
     508                       1       1                               0D     54
     508      28                                                00010000D     55
     508                       1       1                               0D     56
     508      29                                                00010000D     57
     508                       1       1                               0D     58
     508      30                                                00010000D     59
     508                       1       1                               0D     60
     508      31                                                00010000D     61
     508                       1       1                               0D     62
     508      32                                                00010000D     63
     508                       1       1                               0D     64
     508      33                                                00010000D     65
     508                       1       1                               0D     66
     508      34                                                00010000D     67
     508                       1       1                               0D     68
     508      35                                                00010000D     69
     508                       1       1                               0D     70
     508      36                                                00010000D     71
     508                       1       1                               0D     72
     508      37                                                00010000D     73
     508                       1       1                               0D     74
     508      38                                                00010000D     75
     508                       1       1                               0D     76
     126      39                                                00010000D     77
     126       0               9       0                               0D     78
     126      48                                                00010000D     79
     126       0               2       0                               0D     80
     126      50                                                00010000D     81
     126       0               9       0                               0D     82
     126      59                                                00010000D     83
     126       0              11       0                               0D     84
     126      70                                                00010000D     85
     126       0               3       0                               0D     86
     126      73                                                00010000D     87
     126       0              11       0                               0D     88
     126      84                                                00010000D     89
     126       0               9       0                               0D     90
     126      93                                                00010000D     91
     126       0               2       0                               0D     92
     126      95                                                00010000D     93
     126       0               9       0                               0D     94
     126     104                                                00010000D     95
     126       0              11       0                               0D     96
     126     115                                                00010000D     97
     126       0               3       0                               0D     98
     126     118                                                00010000D     99
     126       0              11       0                               0D    100
     126     129                                                00010000D    101
     126       0              11       0                               0D    102
     126     140                                                00010000D    103
     126       0               3       0                               0D    104
     126     143                                                00010000D    105
     126       0              11       0                               0D    106
     126     154                                                00010000D    107
     126       0              11       0                               0D    108
     126     165                                                00010000D    109
     126       0               3       0                               0D    110
     126     168                                                00010000D    111
     126       0              11       0                               0D    112
     126     179                                                00010000D    113
     126       0              11       0                               0D    114
     126     190                                                00010000D    115
     126       0               3       0                               0D    116
     126     193                                                00010000D    117
     126       0              11       0                               0D    118
     126     204                                                00010000D    119
     126       0               9       0                               0D    120
     126     213                                                00010000D    121
     126       0               2       0                               0D    122
     126     215                                                00010000D    123
     126       0               9       0                               0D    124
     128     224                                                00010000D    125
     128       0    -153      12       0                               0D    126
     128     236                                                00010000D    127
     128       0    -153      17       0                               0D    128
     128     253                                                00010000D    129
     128       0    -153      12       0                               0D    130
     128     265                                                00010000D    131
     128       0    -153      17       0                               0D    132
     128     282                                                00010000D    133
     128       0    -153      17       0                               0D    134
     128     299                                                00010000D    135
     128       0    -153      17       0                               0D    136
     128     316                                                00010000D    137
     128       0    -153      17       0                               0D    138
     128     333                                                00010000D    139
     128       0    -153      12       0                               0D    140
     128     345                                                00010000D    141
     128       0    -153       3       0                               0D    142
     128     348                                                00010000D    143
     128       0    -153       3       0                               0D    144
     502     351                                                00010000D    145
     502                       7       1                               0D    146
     504     358                                                00010001D    147
     504                       7       1                               0D    148
     406     365                                                00000000D    149
     406                       1      15                               0D    150
     406     366                                                00000000D    151
     406                       1      15                               0D    152
     314     367                                                00000200D    153
     314                       2       0                               0D    154
408,3,0.,0.,0.,1.,0,1,151;                                             1P      1
308,0,6Hspacer,1,5;                                                    3P      2
186,7,1,0,0,1,149;                                                     5P      3
514,10,9,1,11,1,13,1,15,1,17,1,19,1,21,1,23,1,25,1,27,1;               7P      4
510,125,1,1,29;                                                        9P      5
510,127,1,1,31;                                                       11P      6
510,129,1,1,33;                                                       13P      7
510,131,1,1,35;                                                       15P      8
510,133,1,1,37;                                                       17P      9
510,135,1,1,39;                                                       19P     10
510,137,1,1,41;                                                       21P     11
510,139,1,1,43;                                                       23P     12
510,141,8,1,45,47,49,51,53,55,57,59;                                  25P     13
510,143,8,1,61,63,65,67,69,71,73,75;                                  27P     14
508,4,0,147,1,0,0,0,147,2,1,0,0,147,3,1,0,0,147,2,0,0;                29P     15
508,4,0,147,4,0,0,0,147,5,1,0,0,147,6,1,0,0,147,5,0,0;                31P     16
508,4,0,147,7,0,0,0,147,8,1,0,0,147,9,1,0,0,147,8,0,0;                33P     17
508,4,0,147,10,0,0,0,147,11,1,0,0,147,12,1,0,0,147,11,0,0;            35P     18
508,4,0,147,13,0,0,0,147,14,1,0,0,147,15,1,0,0,147,14,0,0;            37P     19
508,4,0,147,16,0,0,0,147,17,1,0,0,147,18,1,0,0,147,17,0,0;            39P     20
508,4,0,147,19,0,0,0,147,20,1,0,0,147,21,1,0,0,147,20,0,0;            41P     21
508,4,0,147,22,0,0,0,147,23,1,0,0,147,24,1,0,0,147,23,0,0;            43P     22
508,1,0,147,22,1,0;                                                   45P     23
508,1,0,147,19,1,0;                                                   47P     24
508,1,0,147,16,1,0;                                                   49P     25
508,1,0,147,13,1,0;                                                   51P     26
508,1,0,147,10,1,0;                                                   53P     27
508,1,0,147,7,1,0;                                                    55P     28
508,1,0,147,4,1,0;                                                    57P     29
508,1,0,147,1,1,0;                                                    59P     30
508,1,0,147,24,0,0;                                                   61P     31
508,1,0,147,21,0,0;                                                   63P     32
508,1,0,147,18,0,0;                                                   65P     33
508,1,0,147,15,0,0;                                                   67P     34
508,1,0,147,12,0,0;                                                   69P     35
508,1,0,147,9,0,0;                                                    71P     36
508,1,0,147,6,0,0;                                                    73P     37
508,1,0,147,3,0,0;                                                    75P     38
126,8,2,0,1,0,0,-3.14159265358979,-3.14159265358979,                  77P     39
-3.14159265358979,-1.5707963267949,-1.5707963267949,0.,0.,            77P     40
1.5707963267949,1.5707963267949,3.14159265358979,                     77P     41
3.14159265358979,3.14159265358979,1.,0.707106781186548,1.,            77P     42
0.707106781186548,1.,0.707106781186548,1.,0.707106781186548,1.,       77P     43
-58.,7.10295143505465D-15,2.,-58.,58.,2.,3.55147571752732D-15,        77P     44
58.,2.,58.,58.,2.,58.,0.,2.,58.,-58.,2.,3.55147571752732D-15,         77P     45
-58.,2.,-58.,-58.,2.,-58.,-7.10295143505465D-15,2.,                   77P     46
-3.14159265358979,3.14159265358979,0.,0.,0.;                          77P     47
126,1,1,0,0,1,0,-0.0344827586206897,-0.0344827586206897,0.,0.,        79P     48
1.,1.,-58.,0.,2.,-58.,0.,0.,-0.0344827586206897,0.,0.,0.,0.;          79P     49
126,8,2,0,1,0,0,-3.14159265358979,-3.14159265358979,                  81P     50
-3.14159265358979,-1.5707963267949,-1.5707963267949,0.,0.,            81P     51
1.5707963267949,1.5707963267949,3.14159265358979,                     81P     52
3.14159265358979,3.14159265358979,1.,0.707106781186548,1.,            81P     53
0.707106781186548,1.,0.707106781186548,1.,0.707106781186548,1.,       81P     54
-58.,7.10295143505465D-15,0.,-58.,58.,0.,3.55147571752732D-15,        81P     55
58.,0.,58.,58.,0.,58.,0.,0.,58.,-58.,0.,3.55147571752732D-15,         81P     56
-58.,0.,-58.,-58.,0.,-58.,-7.10295143505465D-15,0.,                   81P     57
-3.14159265358979,3.14159265358979,0.,0.,0.;                          81P     58
126,8,2,0,1,0,0,-3.14159265358979,-3.14159265358979,                  83P     59
-3.14159265358979,-1.5707963267949,-1.5707963267949,0.,0.,            83P     60
1.5707963267949,1.5707963267949,3.14159265358979,                     83P     61
3.14159265358979,3.14159265358979,1.,0.707106781186546,1.,            83P     62
0.707106781186546,1.,0.707106781186546,1.,0.707106781186546,1.,       83P     63
-1.75000000000001,-64.,2.,-1.75000000000001,-62.25,2.,                83P     64
-7.73058291961767D-15,-62.25,2.,1.74999999999999,-62.25,2.,           83P     65
1.74999999999999,-64.,2.,1.74999999999999,-65.75,2.,                  83P     66
-7.73058291961767D-15,-65.75,2.,-1.75000000000001,-65.75,2.,          83P     67
-1.75000000000001,-64.,2.,-3.14159265358979,3.14159265358979,0.,      83P     68
0.,0.;                                                                83P     69
126,1,1,0,0,1,0,-1.14285714285714,-1.14285714285714,0.,0.,1.,1.,      85P     70
-1.75000000000001,-64.,2.,-1.75000000000001,-64.,0.,                  85P     71
-1.14285714285714,0.,0.,0.,0.;                                        85P     72
126,8,2,0,1,0,0,-3.14159265358979,-3.14159265358979,                  87P     73
-3.14159265358979,-1.5707963267949,-1.5707963267949,0.,0.,            87P     74
1.5707963267949,1.5707963267949,3.14159265358979,                     87P     75
3.14159265358979,3.14159265358979,1.,0.707106781186546,1.,            87P     76
0.707106781186546,1.,0.707106781186546,1.,0.707106781186546,1.,       87P     77
-1.75000000000001,-64.,0.,-1.75000000000001,-62.25,0.,                87P     78
-7.73058291961767D-15,-62.25,0.,1.74999999999999,-62.25,0.,           87P     79
1.74999999999999,-64.,0.,1.74999999999999,-65.75,0.,                  87P     80
-7.73058291961767D-15,-65.75,0.,-1.75000000000001,-65.75,0.,          87P     81
-1.75000000000001,-64.,0.,-3.14159265358979,3.14159265358979,0.,      87P     82
0.,0.;                                                                87P     83
126,8,2,0,1,0,0,-3.14159265358979,-3.14159265358979,                  89P     84
-3.14159265358979,-1.5707963267949,-1.5707963267949,0.,0.,            89P     85
1.5707963267949,1.5707963267949,3.14159265358979,                     89P     86
3.14159265358979,3.14159265358979,1.,0.707106781186546,1.,            89P     87
0.707106781186546,1.,0.707106781186546,1.,0.707106781186546,1.,       89P     88
-1.75,64.,2.,-1.75,65.75,2.,1.07156594925393D-16,65.75,2.,1.75,       89P     89
65.75,2.,1.75,64.,2.,1.75,62.25,2.,1.07156594925393D-16,62.25,        89P     90
2.,-1.75,62.25,2.,-1.75,64.,2.,-3.14159265358979,                     89P     91
3.14159265358979,0.,0.,0.;                                            89P     92
126,1,1,0,0,1,0,-1.14285714285714,-1.14285714285714,0.,0.,1.,1.,      91P     93
-1.75,64.,2.,-1.75,64.,0.,-1.14285714285714,0.,0.,0.,0.;              91P     94
126,8,2,0,1,0,0,-3.14159265358979,-3.14159265358979,                  93P     95
-3.14159265358979,-1.5707963267949,-1.5707963267949,0.,0.,            93P     96
1.5707963267949,1.5707963267949,3.14159265358979,                     93P     97
3.14159265358979,3.14159265358979,1.,0.707106781186546,1.,            93P     98
0.707106781186546,1.,0.707106781186546,1.,0.707106781186546,1.,       93P     99
-1.75,64.,0.,-1.75,65.75,0.,1.07156594925393D-16,65.75,0.,1.75,       93P    100
65.75,0.,1.75,64.,0.,1.75,62.25,0.,1.07156594925393D-16,62.25,        93P    101
0.,-1.75,62.25,0.,-1.75,64.,0.,-3.14159265358979,                     93P    102
3.14159265358979,0.,0.,0.;                                            93P    103
126,8,2,0,1,0,0,-3.14159265358979,-3.14159265358979,                  95P    104
-3.14159265358979,-1.5707963267949,-1.5707963267949,0.,0.,            95P    105
1.5707963267949,1.5707963267949,3.14159265358979,                     95P    106
3.14159265358979,3.14159265358979,1.,0.707106781186543,1.,            95P    107
0.707106781186543,1.,0.707106781186543,1.,0.707106781186543,1.,       95P    108
-57.1756258422041,32.,2.,-57.1756258422041,33.75,2.,                  95P    109
-55.4256258422041,33.75,2.,-53.6756258422041,33.75,2.,                95P    110
-53.6756258422041,32.,2.,-53.6756258422041,30.25,2.,                  95P    111
-55.4256258422041,30.25,2.,-57.1756258422041,30.25,2.,                95P    112
-57.1756258422041,32.,2.,-3.14159265358979,3.14159265358979,0.,       95P    113
0.,0.;                                                                95P    114
126,1,1,0,0,1,0,-1.14285714285714,-1.14285714285714,0.,0.,1.,1.,      97P    115
-57.1756258422041,32.,2.,-57.1756258422041,32.,0.,                    97P    116
-1.14285714285714,0.,0.,0.,0.;                                        97P    117
126,8,2,0,1,0,0,-3.14159265358979,-3.14159265358979,                  99P    118
-3.14159265358979,-1.5707963267949,-1.5707963267949,0.,0.,            99P    119
1.5707963267949,1.5707963267949,3.14159265358979,                     99P    120
3.14159265358979,3.14159265358979,1.,0.707106781186543,1.,            99P    121
0.707106781186543,1.,0.707106781186543,1.,0.707106781186543,1.,       99P    122
-57.1756258422041,32.,0.,-57.1756258422041,33.75,0.,                  99P    123
-55.4256258422041,33.75,0.,-53.6756258422041,33.75,0.,                99P    124
-53.6756258422041,32.,0.,-53.6756258422041,30.25,0.,                  99P    125
-55.4256258422041,30.25,0.,-57.1756258422041,30.25,0.,                99P    126
-57.1756258422041,32.,0.,-3.14159265358979,3.14159265358979,0.,       99P    127
0.,0.;                                                                99P    128
126,8,2,0,1,0,0,-3.14159265358979,-3.14159265358979,                 101P    129
-3.14159265358979,-1.5707963267949,-1.5707963267949,0.,0.,           101P    130
1.5707963267949,1.5707963267949,3.14159265358979,                    101P    131
3.14159265358979,3.14159265358979,1.,0.707106781186543,1.,           101P    132
0.707106781186543,1.,0.707106781186543,1.,0.707106781186543,1.,      101P    133
53.6756258422041,-32.,2.,53.6756258422041,-30.25,2.,                 101P    134
55.4256258422041,-30.25,2.,57.1756258422041,-30.25,2.,               101P    135
57.1756258422041,-32.,2.,57.1756258422041,-33.75,2.,                 101P    136
55.4256258422041,-33.75,2.,53.6756258422041,-33.75,2.,               101P    137
53.6756258422041,-32.,2.,-3.14159265358979,3.14159265358979,0.,      101P    138
0.,0.;                                                               101P    139
126,1,1,0,0,1,0,-1.14285714285714,-1.14285714285714,0.,0.,1.,1.,     103P    140
53.6756258422041,-32.,2.,53.6756258422041,-32.,0.,                   103P    141
-1.14285714285714,0.,0.,0.,0.;                                       103P    142
126,8,2,0,1,0,0,-3.14159265358979,-3.14159265358979,                 105P    143
-3.14159265358979,-1.5707963267949,-1.5707963267949,0.,0.,           105P    144
1.5707963267949,1.5707963267949,3.14159265358979,                    105P    145
3.14159265358979,3.14159265358979,1.,0.707106781186543,1.,           105P    146
0.707106781186543,1.,0.707106781186543,1.,0.707106781186543,1.,      105P    147
53.6756258422041,-32.,0.,53.6756258422041,-30.25,0.,                 105P    148
55.4256258422041,-30.25,0.,57.1756258422041,-30.25,0.,               105P    149
57.1756258422041,-32.,0.,57.1756258422041,-33.75,0.,                 105P    150
55.4256258422041,-33.75,0.,53.6756258422041,-33.75,0.,               105P    151
53.6756258422041,-32.,0.,-3.14159265358979,3.14159265358979,0.,      105P    152
0.,0.;                                                               105P    153
126,8,2,0,1,0,0,-3.14159265358979,-3.14159265358979,                 107P    154
-3.14159265358979,-1.5707963267949,-1.5707963267949,0.,0.,           107P    155
1.5707963267949,1.5707963267949,3.14159265358979,                    107P    156
3.14159265358979,3.14159265358979,1.,0.707106781186543,1.,           107P    157
0.707106781186543,1.,0.707106781186543,1.,0.707106781186543,1.,      107P    158
-57.1756258422041,-32.,2.,-57.1756258422041,-30.25,2.,               107P    159
-55.4256258422041,-30.25,2.,-53.6756258422041,-30.25,2.,             107P    160
-53.6756258422041,-32.,2.,-53.6756258422041,-33.75,2.,               107P    161
-55.4256258422041,-33.75,2.,-57.1756258422041,-33.75,2.,             107P    162
-57.1756258422041,-32.,2.,-3.14159265358979,3.14159265358979,0.,     107P    163
0.,0.;                                                               107P    164
126,1,1,0,0,1,0,-1.14285714285714,-1.14285714285714,0.,0.,1.,1.,     109P    165
-57.1756258422041,-32.,2.,-57.1756258422041,-32.,0.,                 109P    166
-1.14285714285714,0.,0.,0.,0.;                                       109P    167
126,8,2,0,1,0,0,-3.14159265358979,-3.14159265358979,                 111P    168
-3.14159265358979,-1.5707963267949,-1.5707963267949,0.,0.,           111P    169
1.5707963267949,1.5707963267949,3.14159265358979,                    111P    170
3.14159265358979,3.14159265358979,1.,0.707106781186543,1.,           111P    171
0.707106781186543,1.,0.707106781186543,1.,0.707106781186543,1.,      111P    172
-57.1756258422041,-32.,0.,-57.1756258422041,-30.25,0.,               111P    173
-55.4256258422041,-30.25,0.,-53.6756258422041,-30.25,0.,             111P    174
-53.6756258422041,-32.,0.,-53.6756258422041,-33.75,0.,               111P    175
-55.4256258422041,-33.75,0.,-57.1756258422041,-33.75,0.,             111P    176
-57.1756258422041,-32.,0.,-3.14159265358979,3.14159265358979,0.,     111P    177
0.,0.;                                                               111P    178
126,8,2,0,1,0,0,-3.14159265358979,-3.14159265358979,                 113P    179
-3.14159265358979,-1.5707963267949,-1.5707963267949,0.,0.,           113P    180
1.5707963267949,1.5707963267949,3.14159265358979,                    113P    181
3.14159265358979,3.14159265358979,1.,0.707106781186543,1.,           113P    182
0.707106781186543,1.,0.707106781186543,1.,0.707106781186543,1.,      113P    183
53.6756258422041,32.,2.,53.6756258422041,33.75,2.,                   113P    184
55.4256258422041,33.75,2.,57.1756258422041,33.75,2.,                 113P    185
57.1756258422041,32.,2.,57.1756258422041,30.25,2.,                   113P    186
55.4256258422041,30.25,2.,53.6756258422041,30.25,2.,                 113P    187
53.6756258422041,32.,2.,-3.14159265358979,3.14159265358979,0.,       113P    188
0.,0.;                                                               113P    189
126,1,1,0,0,1,0,-1.14285714285714,-1.14285714285714,0.,0.,1.,1.,     115P    190
53.6756258422041,32.,2.,53.6756258422041,32.,0.,                     115P    191
-1.14285714285714,0.,0.,0.,0.;                                       115P    192
126,8,2,0,1,0,0,-3.14159265358979,-3.14159265358979,                 117P    193
-3.14159265358979,-1.5707963267949,-1.5707963267949,0.,0.,           117P    194
1.5707963267949,1.5707963267949,3.14159265358979,                    117P    195
3.14159265358979,3.14159265358979,1.,0.707106781186543,1.,           117P    196
0.707106781186543,1.,0.707106781186543,1.,0.707106781186543,1.,      117P    197
53.6756258422041,32.,0.,53.6756258422041,33.75,0.,                   117P    198
55.4256258422041,33.75,0.,57.1756258422041,33.75,0.,                 117P    199
57.1756258422041,32.,0.,57.1756258422041,30.25,0.,                   117P    200
55.4256258422041,30.25,0.,53.6756258422041,30.25,0.,                 117P    201
53.6756258422041,32.,0.,-3.14159265358979,3.14159265358979,0.,       117P    202
0.,0.;                                                               117P    203
126,8,2,0,1,0,0,-3.14159265358979,-3.14159265358979,                 119P    204
-3.14159265358979,-1.5707963267949,-1.5707963267949,0.,0.,           119P    205
1.5707963267949,1.5707963267949,3.14159265358979,                    119P    206
3.14159265358979,3.14159265358979,1.,0.707106781186547,1.,           119P    207
0.707106781186547,1.,0.707106781186547,1.,0.707106781186547,1.,      119P    208
-70.,-8.57252759403147D-15,2.,-70.,-70.,2.,4.28626379701574D-15,     119P    209
-70.,2.,70.,-70.,2.,70.,0.,2.,70.,70.,2.,4.28626379701574D-15,       119P    210
70.,2.,-70.,70.,2.,-70.,8.57252759403147D-15,2.,                     119P    211
-3.14159265358979,3.14159265358979,0.,0.,0.;                         119P    212
126,1,1,0,0,1,0,-0.0285714285714286,-0.0285714285714286,0.,0.,       121P    213
1.,1.,-70.,0.,2.,-70.,0.,0.,-0.0285714285714286,0.,0.,0.,0.;         121P    214
126,8,2,0,1,0,0,-3.14159265358979,-3.14159265358979,                 123P    215
-3.14159265358979,-1.5707963267949,-1.5707963267949,0.,0.,           123P    216
1.5707963267949,1.5707963267949,3.14159265358979,                    123P    217
3.14159265358979,3.14159265358979,1.,0.707106781186547,1.,           123P    218
0.707106781186547,1.,0.707106781186547,1.,0.707106781186547,1.,      123P    219
-70.,-8.57252759403147D-15,0.,-70.,-70.,0.,4.28626379701574D-15,     123P    220
-70.,0.,70.,-70.,0.,70.,0.,0.,70.,70.,0.,4.28626379701574D-15,       123P    221
70.,0.,-70.,70.,0.,-70.,8.57252759403147D-15,0.,                     123P    222
-3.14159265358979,3.14159265358979,0.,0.,0.;                         123P    223
128,1,8,1,2,0,1,0,0,1,0.,0.,0.0344827586206897,                      125P    224
0.0344827586206897,-3.14159265358979,-3.14159265358979,              125P    225
-3.14159265358979,-1.5707963267949,-1.5707963267949,0.,0.,           125P    226
1.5707963267949,1.5707963267949,3.14159265358979,                    125P    227
3.14159265358979,3.14159265358979,1.,1.,0.707106781186548,           125P    228
0.707106781186548,1.,1.,0.707106781186548,0.707106781186548,1.,      125P    229
1.,0.707106781186548,0.707106781186548,1.,1.,0.707106781186548,      125P    230
0.707106781186548,1.,1.,-58.,0.,0.,-58.,0.,2.,-58.,-58.,0.,-58.,     125P    231
-58.,2.,0.,-58.,0.,0.,-58.,2.,58.,-58.,0.,58.,-58.,2.,58.,0.,0.,     125P    232
58.,0.,2.,58.,58.,0.,58.,58.,2.,0.,58.,0.,0.,58.,2.,-58.,58.,0.,     125P    233
-58.,58.,2.,-58.,0.,0.,-58.,0.,2.,0.,0.0344827586206897,             125P    234
-3.14159265358979,3.14159265358979;                                  125P    235
128,1,8,1,2,0,1,0,0,1,0.,0.,1.14285714285714,1.14285714285714,       127P    236
-3.14159265358979,-3.14159265358979,-3.14159265358979,               127P    237
-1.5707963267949,-1.5707963267949,0.,0.,1.5707963267949,             127P    238
1.5707963267949,3.14159265358979,3.14159265358979,                   127P    239
3.14159265358979,1.,1.,0.707106781186548,0.707106781186548,1.,       127P    240
1.,0.707106781186548,0.707106781186548,1.,1.,0.707106781186548,      127P    241
0.707106781186548,1.,1.,0.707106781186548,0.707106781186548,1.,      127P    242
1.,-1.75000000000001,-64.,0.,-1.75000000000001,-64.,2.,              127P    243
-1.75000000000001,-65.75,0.,-1.75000000000001,-65.75,2.,             127P    244
-7.83773951454306D-15,-65.75,0.,-7.83773951454306D-15,-65.75,2.,     127P    245
1.74999999999999,-65.75,0.,1.74999999999999,-65.75,2.,               127P    246
1.74999999999999,-64.,0.,1.74999999999999,-64.,2.,                   127P    247
1.74999999999999,-62.25,0.,1.74999999999999,-62.25,2.,               127P    248
-7.83773951454306D-15,-62.25,0.,-7.83773951454306D-15,-62.25,2.,     127P    249
-1.75000000000001,-62.25,0.,-1.75000000000001,-62.25,2.,             127P    250
-1.75000000000001,-64.,0.,-1.75000000000001,-64.,2.,0.,              127P    251
1.14285714285714,-3.14159265358979,3.14159265358979;                 127P    252
128,1,8,1,2,0,1,0,0,1,0.,0.,1.14285714285714,1.14285714285714,       129P    253
-3.14159265358979,-3.14159265358979,-3.14159265358979,               129P    254
-1.5707963267949,-1.5707963267949,0.,0.,1.5707963267949,             129P    255
1.5707963267949,3.14159265358979,3.14159265358979,                   129P    256
3.14159265358979,1.,1.,0.707106781186548,0.707106781186548,1.,       129P    257
1.,0.707106781186548,0.707106781186548,1.,1.,0.707106781186548,      129P    258
0.707106781186548,1.,1.,0.707106781186548,0.707106781186548,1.,      129P    259
1.,-1.75,64.,0.,-1.75,64.,2.,-1.75,62.25,0.,-1.75,62.25,2.,0.,       129P    260
62.25,0.,0.,62.25,2.,1.75,62.25,0.,1.75,62.25,2.,1.75,64.,0.,        129P    261
1.75,64.,2.,1.75,65.75,0.,1.75,65.75,2.,0.,65.75,0.,0.,65.75,2.,     129P    262
-1.75,65.75,0.,-1.75,65.75,2.,-1.75,64.,0.,-1.75,64.,2.,0.,          129P    263
1.14285714285714,-3.14159265358979,3.14159265358979;                 129P    264
128,1,8,1,2,0,1,0,0,1,0.,0.,1.14285714285714,1.14285714285714,       131P    265
-3.14159265358979,-3.14159265358979,-3.14159265358979,               131P    266
-1.5707963267949,-1.5707963267949,0.,0.,1.5707963267949,             131P    267
1.5707963267949,3.14159265358979,3.14159265358979,                   131P    268
3.14159265358979,1.,1.,0.707106781186548,0.707106781186548,1.,       131P    269
1.,0.707106781186548,0.707106781186548,1.,1.,0.707106781186548,      131P    270
0.707106781186548,1.,1.,0.707106781186548,0.707106781186548,1.,      131P    271
1.,-57.1756258422041,32.,0.,-57.1756258422041,32.,2.,                131P    272
-57.1756258422041,30.25,0.,-57.1756258422041,30.25,2.,               131P    273
-55.4256258422041,30.25,0.,-55.4256258422041,30.25,2.,               131P    274
-53.6756258422041,30.25,0.,-53.6756258422041,30.25,2.,               131P    275
-53.6756258422041,32.,0.,-53.6756258422041,32.,2.,                   131P    276
-53.6756258422041,33.75,0.,-53.6756258422041,33.75,2.,               131P    277
-55.4256258422041,33.75,0.,-55.4256258422041,33.75,2.,               131P    278
-57.1756258422041,33.75,0.,-57.1756258422041,33.75,2.,               131P    279
-57.1756258422041,32.,0.,-57.1756258422041,32.,2.,0.,                131P    280
1.14285714285714,-3.14159265358979,3.14159265358979;                 131P    281
128,1,8,1,2,0,1,0,0,1,0.,0.,1.14285714285714,1.14285714285714,       133P    282
-3.14159265358979,-3.14159265358979,-3.14159265358979,               133P    283
-1.5707963267949,-1.5707963267949,0.,0.,1.5707963267949,             133P    284
1.5707963267949,3.14159265358979,3.14159265358979,                   133P    285
3.14159265358979,1.,1.,0.707106781186548,0.707106781186548,1.,       133P    286
1.,0.707106781186548,0.707106781186548,1.,1.,0.707106781186548,      133P    287
0.707106781186548,1.,1.,0.707106781186548,0.707106781186548,1.,      133P    288
1.,53.6756258422041,-32.,0.,53.6756258422041,-32.,2.,                133P    289
53.6756258422041,-33.75,0.,53.6756258422041,-33.75,2.,               133P    290
55.4256258422041,-33.75,0.,55.4256258422041,-33.75,2.,               133P    291
57.1756258422041,-33.75,0.,57.1756258422041,-33.75,2.,               133P    292
57.1756258422041,-32.,0.,57.1756258422041,-32.,2.,                   133P    293
57.1756258422041,-30.25,0.,57.1756258422041,-30.25,2.,               133P    294
55.4256258422041,-30.25,0.,55.4256258422041,-30.25,2.,               133P    295
53.6756258422041,-30.25,0.,53.6756258422041,-30.25,2.,               133P    296
53.6756258422041,-32.,0.,53.6756258422041,-32.,2.,0.,                133P    297
1.14285714285714,-3.14159265358979,3.14159265358979;                 133P    298
128,1,8,1,2,0,1,0,0,1,0.,0.,1.14285714285714,1.14285714285714,       135P    299
-3.14159265358979,-3.14159265358979,-3.14159265358979,               135P    300
-1.5707963267949,-1.5707963267949,0.,0.,1.5707963267949,             135P    301
1.5707963267949,3.14159265358979,3.14159265358979,                   135P    302
3.14159265358979,1.,1.,0.707106781186548,0.707106781186548,1.,       135P    303
1.,0.707106781186548,0.707106781186548,1.,1.,0.707106781186548,      135P    304
0.707106781186548,1.,1.,0.707106781186548,0.707106781186548,1.,      135P    305
1.,-57.1756258422041,-32.,0.,-57.1756258422041,-32.,2.,              135P    306
-57.1756258422041,-33.75,0.,-57.1756258422041,-33.75,2.,             135P    307
-55.4256258422041,-33.75,0.,-55.4256258422041,-33.75,2.,             135P    308
-53.6756258422041,-33.75,0.,-53.6756258422041,-33.75,2.,             135P    309
-53.6756258422041,-32.,0.,-53.6756258422041,-32.,2.,                 135P    310
-53.6756258422041,-30.25,0.,-53.6756258422041,-30.25,2.,             135P    311
-55.4256258422041,-30.25,0.,-55.4256258422041,-30.25,2.,             135P    312
-57.1756258422041,-30.25,0.,-57.1756258422041,-30.25,2.,             135P    313
-57.1756258422041,-32.,0.,-57.1756258422041,-32.,2.,0.,              135P    314
1.14285714285714,-3.14159265358979,3.14159265358979;                 135P    315
128,1,8,1,2,0,1,0,0,1,0.,0.,1.14285714285714,1.14285714285714,       137P    316
-3.14159265358979,-3.14159265358979,-3.14159265358979,               137P    317
-1.5707963267949,-1.5707963267949,0.,0.,1.5707963267949,             137P    318
1.5707963267949,3.14159265358979,3.14159265358979,                   137P    319
3.14159265358979,1.,1.,0.707106781186548,0.707106781186548,1.,       137P    320
1.,0.707106781186548,0.707106781186548,1.,1.,0.707106781186548,      137P    321
0.707106781186548,1.,1.,0.707106781186548,0.707106781186548,1.,      137P    322
1.,53.6756258422041,32.,0.,53.6756258422041,32.,2.,                  137P    323
53.6756258422041,30.25,0.,53.6756258422041,30.25,2.,                 137P    324
55.4256258422041,30.25,0.,55.4256258422041,30.25,2.,                 137P    325
57.1756258422041,30.25,0.,57.1756258422041,30.25,2.,                 137P    326
57.1756258422041,32.,0.,57.1756258422041,32.,2.,                     137P    327
57.1756258422041,33.75,0.,57.1756258422041,33.75,2.,                 137P    328
55.4256258422041,33.75,0.,55.4256258422041,33.75,2.,                 137P    329
53.6756258422041,33.75,0.,53.6756258422041,33.75,2.,                 137P    330
53.6756258422041,32.,0.,53.6756258422041,32.,2.,0.,                  137P    331
1.14285714285714,-3.14159265358979,3.14159265358979;                 137P    332
128,1,8,1,2,0,1,0,0,1,0.,0.,0.0285714285714286,                      139P    333
0.0285714285714286,-3.14159265358979,-3.14159265358979,              139P    334
-3.14159265358979,-1.5707963267949,-1.5707963267949,0.,0.,           139P    335
1.5707963267949,1.5707963267949,3.14159265358979,                    139P    336
3.14159265358979,3.14159265358979,1.,1.,0.707106781186548,           139P    337
0.707106781186548,1.,1.,0.707106781186548,0.707106781186548,1.,      139P    338
1.,0.707106781186548,0.707106781186548,1.,1.,0.707106781186548,      139P    339
0.707106781186548,1.,1.,-70.,0.,2.,-70.,0.,0.,-70.,-70.,2.,-70.,     139P    340
-70.,0.,0.,-70.,2.,0.,-70.,0.,70.,-70.,2.,70.,-70.,0.,70.,0.,2.,     139P    341
70.,0.,0.,70.,70.,2.,70.,70.,0.,0.,70.,2.,0.,70.,0.,-70.,70.,2.,     139P    342
-70.,70.,0.,-70.,0.,2.,-70.,0.,0.,0.,0.0285714285714286,             139P    343
-3.14159265358979,3.14159265358979;                                  139P    344
128,1,1,1,1,0,0,1,0,0,-7.001,-7.001,7.001,7.001,-7.001,-7.001,       141P    345
7.001,7.001,1.,1.,1.,1.,-70.01,-70.01,2.,70.01,-70.01,2.,-70.01,     141P    346
70.01,2.,70.01,70.01,2.,-7.001,7.001,-7.001,7.001;                   141P    347
128,1,1,1,1,0,0,1,0,0,-7.001,-7.001,7.001,7.001,-7.001,-7.001,       143P    348
7.001,7.001,1.,1.,1.,1.,70.01,-70.01,0.,-70.01,-70.01,0.,70.01,      143P    349
70.01,0.,-70.01,70.01,0.,-7.001,7.001,-7.001,7.001;                  143P    350
502,16,-58.,-8.88178419700125D-15,2.,-58.,-7.10295143505465D-15,     145P    351
0.,-1.75000000000001,-64.,2.,-1.75000000000001,-64.,0.,-1.75,        145P    352
64.,2.,-1.75,64.,0.,-57.1756258422041,32.,2.,-57.1756258422041,      145P    353
32.,0.,53.6756258422041,-32.,2.,53.6756258422041,-32.,0.,            145P    354
-57.1756258422041,-32.,2.,-57.1756258422041,-32.,0.,                 145P    355
53.6756258422041,32.,2.,53.6756258422041,32.,0.,-70.,                145P    356
-8.88178419700125D-15,2.,-70.,-8.57252759403147D-15,0.;              145P    357
504,24,77,145,1,145,1,79,145,1,145,2,81,145,2,145,2,83,145,3,        147P    358
145,3,85,145,3,145,4,87,145,4,145,4,89,145,5,145,5,91,145,5,145,     147P    359
6,93,145,6,145,6,95,145,7,145,7,97,145,7,145,8,99,145,8,145,8,       147P    360
101,145,9,145,9,103,145,9,145,10,105,145,10,145,10,107,145,11,       147P    361
145,11,109,145,11,145,12,111,145,12,145,12,113,145,13,145,13,        147P    362
115,145,13,145,14,117,145,14,145,14,119,145,15,145,15,121,145,       147P    363
15,145,16,123,145,16,145,16;                                         147P    364
406,1,5HBody1;                                                       149P    365
406,1,8Hspacer:1;                                                    151P    366
314,62.7450980392157,62.7450980392157,62.7450980392157,13HSteel      153P    367
- Satin;                                                             153P    368
S      1G      3D    154P    368                                        T      1
